<svg width="80" height="80" viewBox="0 0 80 80" fill="none" xmlns="http://www.w3.org/2000/svg">
<path fill-rule="evenodd" clip-rule="evenodd" d="M80 40C80 62.0914 62.0914 80 40 80C17.9086 80 0 62.0914 0 40C0 17.9086 17.9086 0 40 0C62.0914 0 80 17.9086 80 40ZM59 35C59 39.1421 48.1421 62 44 62C40.9195 62 42.421 49.3574 43.3929 41.1731C43.7279 38.3526 44 36.0616 44 35C44 33.4783 44.2508 34.2218 44.7734 35.7716C45.6734 38.4404 47.3796 43.5 50 43.5C52.2948 43.5 54.8093 39.6197 56.5957 36.8629C58.0338 34.6437 59 33.1527 59 35ZM38.4458 45.6268C38.5188 45.6191 38.5 44.7451 38.5 42.5C38.5 38.9117 39.6555 34.852 40.7153 31.1287C42.5915 24.5371 44.1675 19 38.5 19C29.6312 19 20 32.5589 20 42.5C20 46.5747 20.19 46.1331 21.0251 44.1929C22.2272 41.3996 24.7663 35.5 30 35.5C36.8659 35.5 38.1954 45.6534 38.4458 45.6268Z" fill="#222121"/>
</svg>
