<svg width="31" height="30" viewBox="0 0 31 30" fill="none" xmlns="http://www.w3.org/2000/svg">
<path d="M30.2856 15C30.2856 23.2843 23.5699 30 15.2856 30C7.00137 30 0.285645 23.2843 0.285645 15C0.285645 6.71573 7.00137 0 15.2856 0C23.5699 0 30.2856 6.71573 30.2856 15Z" fill="#2C2525"/>
<path d="M12.6814 15.0003L18.995 21.3078C19.3825 21.6949 19.3825 22.3225 18.995 22.7096C18.6074 23.0968 17.9793 23.0968 17.5918 22.7096L14.084 19.2053L10.5763 15.7009C10.1888 15.3138 10.1888 14.6862 10.5763 14.2991L17.5918 7.29038C17.9793 6.90321 18.6074 6.90321 18.995 7.29038C19.3825 7.67755 19.3825 8.30507 18.995 8.69224L12.6814 15.0003Z" fill="white"/>
</svg>
