<svg width="30" height="30" viewBox="0 0 30 30" fill="none" xmlns="http://www.w3.org/2000/svg">
<rect width="30" height="30" rx="15" fill="#2C2525"/>
<g clip-path="url(#clip0)">
<path d="M22.4071 7.60219C22.2783 7.47343 22.0697 7.47343 21.9409 7.60219L13.518 16.0253C13.3892 16.1541 13.3892 16.3627 13.518 16.4914C13.6467 16.6202 13.8553 16.6202 13.9841 16.4914L22.4072 8.0683C22.5358 7.93954 22.5358 7.73094 22.4071 7.60219Z" fill="white"/>
<path d="M22.4999 16.1865C22.4999 16.1888 22.5 16.191 22.5 16.1934V16.1865H22.4999ZM21.8408 16.1865V16.1934C21.8408 16.191 21.841 16.1888 21.841 16.1865H21.8408Z" fill="white"/>
<path d="M22.1704 16.5234C21.9883 16.5234 21.8408 16.3759 21.8408 16.1938V21.0352C21.8408 21.4794 21.4794 21.8408 21.0352 21.8408H8.96484C8.52056 21.8408 8.15918 21.4794 8.15918 21.0352V8.96484C8.15918 8.52056 8.52056 8.15918 8.96484 8.15918H14.2529C14.0708 8.15918 13.9233 8.01167 13.9233 7.82959C13.9233 7.64751 14.0708 7.5 14.2529 7.5H8.96484C8.15581 7.5 7.5 8.15581 7.5 8.96484V21.0352C7.5 21.8442 8.15581 22.5 8.96484 22.5H21.0352C21.8442 22.5 22.5 21.8442 22.5 21.0352V16.1938C22.5 16.3759 22.3525 16.5234 22.1704 16.5234Z" fill="white"/>
<path d="M13.9233 7.82959C13.9233 7.917 13.9581 8.00084 14.0199 8.06265C14.0817 8.12446 14.1655 8.15918 14.2529 8.15918C14.3403 8.15918 14.4242 8.12446 14.486 8.06265C14.5478 8.00084 14.5825 7.917 14.5825 7.82959C14.5825 7.74218 14.5478 7.65834 14.486 7.59653C14.4242 7.53472 14.3403 7.5 14.2529 7.5C14.1655 7.5 14.0817 7.53472 14.0199 7.59653C13.9581 7.65834 13.9233 7.74218 13.9233 7.82959Z" fill="white"/>
<path d="M22.1704 15.8643C21.9908 15.8643 21.8449 16.008 21.841 16.1865C21.841 16.189 21.8408 16.1914 21.8408 16.1938C21.8408 16.3759 21.9883 16.5234 22.1704 16.5234C22.3525 16.5234 22.5 16.3759 22.5 16.1938C22.5 16.1914 22.4999 16.189 22.4999 16.1865C22.4959 16.008 22.35 15.8643 22.1704 15.8643Z" fill="white"/>
</g>
<defs>
<clipPath id="clip0">
<rect width="15" height="15" fill="white" transform="translate(7.5 7.5)"/>
</clipPath>
</defs>
</svg>
