<svg width="99" height="98" viewBox="0 0 99 98" fill="none" xmlns="http://www.w3.org/2000/svg">
<rect x="0.5" width="98" height="98" rx="49" fill="#9C9292" fill-opacity="0.6"/>
<g clip-path="url(#clip0)">
<path d="M60.2223 61.4737H38.7991C37.6593 61.4723 36.5665 61.0197 35.7605 60.2151C34.9546 59.4105 34.5012 58.3196 34.5 57.1818V44.0357C34.5012 42.8979 34.9546 41.807 35.7605 41.0024C36.5665 40.1978 37.6593 39.7452 38.7991 39.7438H40.8373L41.6768 38.1303C41.8534 37.7891 42.1208 37.5031 42.4496 37.3037C42.7784 37.1043 43.1559 36.9992 43.5407 37H54.6282C55.0129 36.9992 55.3904 37.1043 55.7192 37.3037C56.0481 37.5031 56.3154 37.7891 56.492 38.1303L57.3316 39.7438H60.2223C61.362 39.7453 62.4546 40.1981 63.2604 41.0026C64.0662 41.8072 64.5194 42.898 64.5207 44.0357V57.1818C64.5194 58.3195 64.0662 59.4103 63.2604 60.2149C62.4546 61.0194 61.362 61.4722 60.2223 61.4737ZM38.7991 41.0097C37.9955 41.0107 37.2251 41.3298 36.6569 41.8971C36.0886 42.4644 35.769 43.2335 35.7682 44.0357V57.1818C35.769 57.984 36.0886 58.7531 36.6569 59.3204C37.2251 59.8877 37.9955 60.2068 38.7991 60.2078H60.2223C61.0259 60.2068 61.7964 59.8877 62.3647 59.3204C62.933 58.7532 63.2526 57.9841 63.2536 57.1818V44.0357C63.2526 43.2334 62.933 42.4643 62.3647 41.8971C61.7964 41.3298 61.0259 41.0107 60.2223 41.0097H56.9475C56.8313 41.0098 56.7173 40.978 56.618 40.9178C56.5187 40.8575 56.4379 40.7713 56.3844 40.6683L55.3677 38.7152C55.2978 38.5799 55.1918 38.4666 55.0616 38.3876C54.9313 38.3086 54.7817 38.267 54.6293 38.2674H43.5418C43.3893 38.267 43.2397 38.3086 43.1094 38.3876C42.9792 38.4666 42.8732 38.5799 42.8033 38.7152L41.7862 40.6683C41.7327 40.7712 41.652 40.8575 41.5528 40.9177C41.4535 40.9779 41.3396 41.0097 41.2235 41.0097H38.7991Z" fill="white"/>
<path d="M49.4361 56.8649C45.604 56.8649 42.4868 53.7543 42.4868 49.9279C42.4868 46.1016 45.6029 42.991 49.4361 42.991C53.2692 42.991 56.3853 46.1037 56.3853 49.9279C56.3853 53.7521 53.2678 56.8649 49.4361 56.8649ZM49.4361 44.2569C46.3033 44.2569 43.755 46.8007 43.755 49.9279C43.755 53.0551 46.3033 55.5989 49.4361 55.5989C52.5688 55.5989 55.1172 53.0548 55.1172 49.9279C55.1172 46.8011 52.5685 44.2569 49.4361 44.2569ZM58.7662 43.6341H56.4864C56.3183 43.6341 56.157 43.5674 56.0381 43.4487C55.9191 43.33 55.8523 43.169 55.8523 43.0011C55.8523 42.8333 55.9191 42.6723 56.0381 42.5536C56.157 42.4349 56.3183 42.3682 56.4864 42.3682H58.7662C58.9344 42.3682 59.0957 42.4349 59.2146 42.5536C59.3335 42.6723 59.4003 42.8333 59.4003 43.0011C59.4003 43.169 59.3335 43.33 59.2146 43.4487C59.0957 43.5674 58.9344 43.6341 58.7662 43.6341Z" fill="white"/>
</g>
<defs>
<clipPath id="clip0">
<rect width="30" height="24.4737" fill="white" transform="translate(34.5 37)"/>
</clipPath>
</defs>
</svg>
