<svg width="30" height="30" viewBox="0 0 30 30" fill="none" xmlns="http://www.w3.org/2000/svg">
<rect y="0.357178" width="29.2857" height="29.2857" rx="14.6429" fill="#2C2525"/>
<g clip-path="url(#clip0)">
<path d="M19.4641 20.6257C19.0196 20.6257 18.6599 20.266 18.6599 19.8215C18.6599 19.377 19.0196 19.0173 19.4641 19.0173C21.2364 19.0173 22.679 17.5747 22.679 15.8024C22.679 14.1149 21.3588 12.708 19.675 12.5988L19.2004 12.5705L18.9989 12.143C18.2041 10.4612 16.494 9.37446 14.6427 9.37446C12.7913 9.37446 11.0812 10.4612 10.2864 12.143L10.0849 12.5705L9.6122 12.6007C7.92658 12.7099 6.60822 14.1168 6.60822 15.8043C6.60822 17.5765 8.05089 19.0192 9.82314 19.0192C10.2676 19.0192 10.6273 19.3789 10.6273 19.8234C10.6273 20.2679 10.2676 20.6276 9.82314 20.6276C7.16382 20.6276 5.00171 18.4655 5.00171 15.8062C5.00171 13.4312 6.74383 11.4273 9.04531 11.0525C10.1753 9.04299 12.3243 7.76794 14.6427 7.76794C16.9611 7.76794 19.11 9.04299 20.2419 11.0488C22.5434 11.4236 24.2855 13.4294 24.2855 15.8043C24.2855 18.4617 22.1234 20.6257 19.4641 20.6257Z" fill="#ECEFF3"/>
<path d="M14.6429 23.0364C14.4376 23.0364 14.2323 22.9573 14.0741 22.801L11.6634 20.3902C11.3489 20.0757 11.3489 19.5672 11.6634 19.2546C11.976 18.94 12.4864 18.94 12.7991 19.2546L14.641 21.0965L16.4829 19.2546C16.7956 18.94 17.306 18.94 17.6186 19.2546C17.9331 19.5691 17.9331 20.0776 17.6186 20.3902L15.2079 22.801C15.0534 22.9573 14.8482 23.0364 14.6429 23.0364Z" fill="#D7D9E3"/>
<path d="M14.6428 23.0364C14.1983 23.0364 13.8386 22.6767 13.8386 22.2322V16.6066C13.8386 16.1621 14.1983 15.8024 14.6428 15.8024C15.0873 15.8024 15.447 16.1621 15.447 16.6066V22.2322C15.447 22.6767 15.0873 23.0364 14.6428 23.0364Z" fill="#D7D9E3"/>
</g>
<defs>
<clipPath id="clip0">
<rect width="19.2857" height="19.2857" fill="white" transform="translate(5 5.35718)"/>
</clipPath>
</defs>
</svg>
