<svg width="30" height="30" viewBox="0 0 30 30" fill="none" xmlns="http://www.w3.org/2000/svg">
<circle cx="15" cy="15" r="15" fill="white"/>
<g clip-path="url(#clip0)">
<path d="M22.9071 8.10219C22.7783 7.97343 22.5697 7.97343 22.4409 8.10219L14.018 16.5253C13.8892 16.6541 13.8892 16.8627 14.018 16.9914C14.1467 17.1202 14.3553 17.1202 14.4841 16.9914L22.9072 8.5683C23.0358 8.43954 23.0358 8.23094 22.9071 8.10219Z" fill="#3B7073"/>
<path d="M22.9999 16.6865C22.9999 16.6888 23 16.691 23 16.6934V16.6865H22.9999ZM22.3408 16.6865V16.6934C22.3408 16.691 22.341 16.6888 22.341 16.6865H22.3408Z" fill="#3B7073"/>
<path d="M22.6704 17.0234C22.4883 17.0234 22.3408 16.8759 22.3408 16.6938V21.5352C22.3408 21.9794 21.9794 22.3408 21.5352 22.3408H9.46484C9.02056 22.3408 8.65918 21.9794 8.65918 21.5352V9.46484C8.65918 9.02056 9.02056 8.65918 9.46484 8.65918H14.7529C14.5708 8.65918 14.4233 8.51167 14.4233 8.32959C14.4233 8.14751 14.5708 8 14.7529 8H9.46484C8.65581 8 8 8.65581 8 9.46484V21.5352C8 22.3442 8.65581 23 9.46484 23H21.5352C22.3442 23 23 22.3442 23 21.5352V16.6938C23 16.8759 22.8525 17.0234 22.6704 17.0234Z" fill="#3B7073"/>
<path d="M22.6704 16.3643C22.4908 16.3643 22.3449 16.508 22.341 16.6865C22.341 16.689 22.3408 16.6914 22.3408 16.6938C22.3408 16.8759 22.4883 17.0234 22.6704 17.0234C22.8525 17.0234 23 16.8759 23 16.6938C23 16.6914 22.9999 16.689 22.9999 16.6865C22.9959 16.508 22.85 16.3643 22.6704 16.3643Z" fill="#3B7073"/>
<path d="M14.4233 8.32959C14.4233 8.417 14.4581 8.50084 14.5199 8.56265C14.5817 8.62446 14.6655 8.65918 14.7529 8.65918C14.8403 8.65918 14.9242 8.62446 14.986 8.56265C15.0478 8.50084 15.0825 8.417 15.0825 8.32959C15.0825 8.24218 15.0478 8.15834 14.986 8.09653C14.9242 8.03472 14.8403 8 14.7529 8C14.6655 8 14.5817 8.03472 14.5199 8.09653C14.4581 8.15834 14.4233 8.24218 14.4233 8.32959Z" fill="#3B7073"/>
</g>
<defs>
<clipPath id="clip0">
<rect width="15" height="15" fill="white" transform="translate(8 8)"/>
</clipPath>
</defs>
</svg>
