<svg width="80" height="80" viewBox="0 0 80 80" fill="none" xmlns="http://www.w3.org/2000/svg">
<path d="M0 40C0 17.9086 17.9086 0 40 0C62.0914 0 80 17.9086 80 40C80 62.0914 62.0914 80 40 80C17.9086 80 0 62.0914 0 40Z" fill="#222121"/>
<circle cx="40" cy="41" r="14.5" stroke="white"/>
<path d="M54.5 42C54.5 42.6466 54.1744 43.3133 53.4777 43.9722C52.7799 44.6321 51.7433 45.2495 50.4209 45.7784C47.7789 46.8352 44.0948 47.5 40 47.5C35.9052 47.5 32.2211 46.8352 29.5791 45.7784C28.2567 45.2495 27.2201 44.6321 26.5223 43.9722C25.8256 43.3133 25.5 42.6466 25.5 42C25.5 41.3534 25.8256 40.6867 26.5223 40.0278C27.2201 39.3679 28.2567 38.7505 29.5791 38.2216C32.2211 37.1648 35.9052 36.5 40 36.5C44.0948 36.5 47.7789 37.1648 50.4209 38.2216C51.7433 38.7505 52.7799 39.3679 53.4777 40.0278C54.1744 40.6867 54.5 41.3534 54.5 42Z" stroke="white"/>
</svg>
