<svg width="151" height="73" viewBox="0 0 151 73" fill="none" xmlns="http://www.w3.org/2000/svg">
<path d="M22.664 8.372C22.7 8.12 22.556 7.724 22.304 7.184L21.548 6.032C21.224 5.564 21.008 5.168 20.9 4.844L20.72 4.304C20.756 4.052 20.792 3.872 20.9 3.764C21.188 3.368 21.368 3.044 21.44 2.828C21.44 2.828 21.224 2.972 20.756 3.296L17.516 5.456L13.124 8.156C11.288 9.344 9.92 10.352 9.02 11.18C8.012 12.116 7.508 13.016 7.508 13.916C7.688 14.456 8.012 14.708 8.552 14.708C9.308 14.708 9.92 14.348 10.388 13.628C10.496 13.34 10.568 13.196 10.568 13.196C10.532 13.196 10.496 13.232 10.46 13.304C10.28 13.412 10.1 13.448 9.848 13.448C9.38 13.448 9.164 13.232 9.164 12.764C9.344 11.972 9.848 11.216 10.712 10.46L12.98 8.84L13.232 8.696C13.34 8.696 13.304 8.912 13.124 9.38C12.8 10.388 12.44 11.288 12.116 12.116V13.448L12.26 13.628C13.448 14.24 14.168 14.636 14.384 14.852C14.42 14.888 14.456 14.888 14.492 14.888L16.256 16.04C16.94 16.58 17.3 17.228 17.3 17.912C17.3 18.56 17.048 19.388 16.544 20.432C15.932 21.764 15.356 22.988 14.888 24.104C14.744 24.428 14.456 24.68 14.06 24.824C12.656 25.292 11.792 25.58 11.324 25.76C11.036 25.868 10.82 25.904 10.712 25.904C10.604 25.796 10.712 25.4 11.036 24.644L13.016 19.928C13.124 19.676 13.628 18.956 14.564 17.768C15.14 17.012 15.176 16.652 14.708 16.652C14.672 16.652 14.564 16.688 14.42 16.724L11.036 18.02C10.568 18.2 10.568 18.164 10.244 18.74C9.056 21.476 8.084 23.78 7.328 25.796C7.076 26.408 6.86 26.876 6.68 27.2C6.356 27.668 5.78 28.064 4.952 28.352C4.052 28.64 2.936 28.136 2.9 27.164C2.9 26.912 2.972 26.624 3.116 26.336C3.656 25.364 4.52 24.86 5.78 24.896H6.32C6.464 24.68 5.996 24.536 4.916 24.5C3.512 24.464 2.396 24.788 1.604 25.544C1.136 25.94 0.92 26.48 0.92 27.236C0.92 28.136 1.424 28.82 2.396 29.216C3.08 29.468 3.944 29.468 5.06 29.216C6.176 28.964 7.652 28.46 9.524 27.632C12.296 26.444 14.42 25.724 15.968 25.436C16.652 25.328 17.264 25.22 17.732 25.184C18.056 25.148 18.272 25.148 18.452 25.148L18.416 25.004C18.416 24.644 19.172 22.592 20.72 18.884C21.044 18.056 21.152 17.408 21.044 16.868C20.792 15.608 19.928 14.456 18.452 13.376L18.164 13.196L17.588 12.8L17.336 12.584C17.3 12.548 17.192 12.584 17.048 12.692C16.148 13.304 15.464 13.772 15.032 14.024C14.996 14.06 14.996 14.06 14.96 14.06L15.896 11.144C16.112 10.496 16.436 9.704 16.868 8.768C16.94 8.624 16.976 8.48 16.976 8.3C16.976 8.084 16.832 7.832 16.508 7.508L16.256 7.256C16.508 7.076 16.904 7.076 17.444 7.256C17.948 7.436 18.272 7.616 18.416 7.76C18.956 8.3 19.244 8.84 19.244 9.308C19.244 9.704 19.064 10.244 18.704 10.928C18.344 11.504 18.092 11.828 17.912 11.936C17.876 12.044 17.948 12.116 18.128 12.152C18.56 12.152 19.136 11.9 19.82 11.396C21.656 10.028 22.592 9.02 22.664 8.372ZM27.8351 10.892C27.8711 10.64 27.6551 10.424 27.1871 10.244C26.8271 10.1 26.5031 10.028 26.2151 10.028C26.1071 10.388 25.8911 10.748 25.5671 11.108C24.8831 11.864 23.8391 12.8 22.4351 13.988L25.0631 12.872C26.8991 12.08 27.7991 11.432 27.8351 10.892ZM28.1231 13.088C28.0511 12.98 27.9071 12.836 27.7271 12.656C27.6191 12.548 27.5831 12.548 27.5831 12.584C27.4031 13.088 26.5751 13.7 25.0631 14.456L21.9311 15.896C21.3191 16.364 21.0311 16.76 21.0311 17.156C21.0311 17.48 21.2471 17.66 21.6791 17.696C21.9311 17.696 22.2911 17.624 22.6871 17.516L23.1191 17.3C23.0831 17.264 23.0471 17.264 22.9391 17.3C22.3631 17.408 22.0751 17.3 22.0751 16.94C22.0751 16.22 23.1911 15.464 23.9111 15.644L21.0311 23.96C20.2391 26.264 18.9431 27.74 17.1791 28.352C17.2871 28.46 17.5751 28.424 18.0431 28.28C19.0151 27.992 20.0951 27.344 21.2831 26.372C23.3711 24.68 24.8111 23.708 25.6391 23.528C25.5671 23.456 25.2791 23.384 24.8111 23.348C24.7391 23.312 24.7031 23.168 24.7031 22.844C24.7391 22.448 24.7751 22.052 24.8831 21.656L26.3591 18.02C27.6551 14.852 28.2671 13.52 28.1231 13.088ZM46.6442 3.98C46.4642 2.576 45.6002 1.856 44.1242 1.856C42.6842 1.856 41.1722 2.648 39.6242 4.196C38.7602 5.06 38.1482 5.996 37.8242 7.004C37.7162 7.292 37.6802 7.472 37.6802 7.58L38.0402 7.112C38.7242 6.212 39.3722 5.492 39.9842 5.024C40.9922 4.304 42.1442 3.872 43.4762 3.764C44.4122 3.764 45.5282 4.304 45.4202 5.24C45.1682 7.22 43.7642 8.696 41.2082 9.668C39.3722 10.352 37.2482 10.712 34.7642 10.748L35.9522 7.724C36.2762 6.968 36.3842 6.5 36.3122 6.32C36.2762 6.14 35.8442 5.672 35.7362 5.78C35.5922 6.32 34.8722 6.932 33.5402 7.616L32.6042 8.012C32.3882 8.084 32.1722 8.48 31.9202 9.236L31.4882 10.712C31.1642 10.712 30.6602 10.748 29.9402 10.784C28.5362 10.892 27.6722 10.964 27.4202 11.072C26.5922 11.396 26.1242 12.044 26.0522 12.944V13.124C26.1962 12.944 26.5202 12.692 27.0602 12.368C27.6722 12.008 29.0042 11.792 31.1282 11.756C30.0842 14.672 29.0762 17.66 28.0322 20.828C27.3482 22.88 26.8802 24.14 26.5562 24.68C25.7282 26.012 24.7202 26.948 23.4962 27.416C23.6042 27.524 23.8922 27.488 24.3602 27.344C25.2242 27.092 26.0162 26.696 26.7002 26.156C27.8522 25.256 28.6442 24.644 29.0762 24.248C30.0482 23.492 30.8402 22.988 31.6682 22.664C31.7762 22.628 31.8842 22.592 31.9202 22.556C31.6322 22.448 31.3802 22.412 31.1282 22.412C31.0922 22.376 31.0562 22.268 31.0562 22.16C31.0562 21.584 31.6322 19.604 32.7842 16.256L34.4042 11.72C40.1282 11.54 43.9802 9.812 46.0322 6.5C46.5722 5.672 46.7522 4.808 46.6442 3.98ZM49.648 12.98C49.648 12.98 49.648 12.944 49.612 12.908C49.54 12.908 49.468 12.908 49.432 12.944C49.036 13.052 48.568 13.196 48.1 13.376C45.796 14.78 44.392 15.572 43.816 15.824C43.636 15.932 43.564 15.968 43.672 16.004C44.14 16.112 44.392 16.328 44.392 16.616C44.392 16.652 44.32 16.904 44.212 17.444C43.816 19.028 43.42 20.18 43.024 20.936C42.376 22.16 41.548 23.024 40.504 23.528L40.648 23.024C40.828 22.556 41.152 21.476 41.692 19.712C42.088 18.38 42.484 17.264 42.916 16.436C43.168 15.896 43.528 15.14 43.924 14.096C43.456 14.852 42.556 15.644 41.224 16.472C39.964 17.3 38.848 17.804 37.948 18.056C37.912 18.092 37.912 18.092 37.876 18.092L37.804 18.128C37.804 18.092 37.876 18.128 37.984 18.236C38.272 18.2 38.632 18.2 39.1 18.2C39.208 18.236 38.956 19.1 38.416 20.828L38.38 20.792C37.84 21.584 37.12 22.232 36.184 22.7C35.932 22.808 35.752 22.844 35.644 22.88C36.112 21.476 36.436 20.504 36.688 19.928C38.164 15.32 39.856 12.692 41.764 12.008C41.656 11.9 41.368 11.9 40.9 12.044C40.072 12.296 39.244 12.764 38.416 13.376L36.184 15.176C35.248 15.932 34.384 16.472 33.628 16.724C33.376 16.796 33.34 16.868 33.484 16.904H34.636C34.6 17.084 34.528 17.48 34.348 18.164C34.024 19.46 33.556 20.864 32.944 22.34C32.476 23.456 31.936 24.068 31.396 24.14C31.648 24.536 32.08 24.716 32.692 24.716C34.132 24.716 35.824 24.032 37.732 22.7C37.336 23.636 36.868 24.104 36.328 24.14C36.652 24.608 37.336 24.86 38.452 24.824C39.208 24.788 40.072 24.608 40.972 24.212C43.78 23.024 45.832 20.936 47.092 17.876C48.172 15.248 48.712 13.916 48.748 13.88C48.928 13.592 49.216 13.34 49.54 13.088C49.612 13.052 49.648 13.016 49.648 12.98ZM63.4492 16.724C63.4852 16.688 63.4492 16.652 63.4132 16.544C63.2332 16.076 62.8012 15.86 62.1172 15.896C61.5772 16.004 61.1812 16.076 60.8572 16.184C59.4892 16.616 58.3372 17.156 57.4012 17.84C56.0332 18.776 55.3852 19.784 55.4572 20.828C55.4932 21.224 55.6012 21.692 55.8532 22.16C55.8532 22.16 55.8892 22.016 55.9972 21.728C56.1052 21.332 56.2492 21.008 56.5012 20.684C57.3292 19.496 59.0932 18.488 61.7572 17.732C61.8292 17.732 61.9012 17.732 61.9372 17.768C60.4612 18.524 59.4892 19.064 59.0212 19.352C58.3732 19.748 57.8692 20.216 57.4732 20.756C56.8252 21.62 56.2492 22.772 55.7452 24.212C55.6012 24.608 55.4572 24.86 55.3132 24.968C55.2772 25.004 55.0252 25.076 54.4852 25.256L53.0452 25.724C52.6852 25.832 52.4692 25.904 52.4332 25.904C52.3612 25.868 52.4692 25.436 52.7572 24.644L54.3772 20.144L57.3652 11.828C58.1932 9.524 58.6972 8.084 58.9492 7.472C59.7052 6.212 60.3172 5.276 60.7852 4.736C60.9292 4.556 61.0012 4.448 60.9652 4.412C60.9292 4.376 60.8212 4.412 60.6412 4.52L53.2612 9.272C51.9652 10.136 51.0652 10.784 50.5972 11.216C49.5532 12.188 49.0852 13.088 49.1932 13.916C49.2652 14.456 49.5532 14.744 50.0932 14.744C50.9212 14.744 51.5692 14.384 52.0732 13.628L52.2892 13.268V13.232L52.0372 13.34C51.8572 13.448 51.7132 13.484 51.5692 13.484C51.0292 13.484 50.7772 13.232 50.8492 12.764C50.9932 11.972 51.4972 11.216 52.3612 10.46L54.7012 8.84L54.9532 8.696C55.0252 8.696 54.9892 8.912 54.8092 9.38L53.9452 11.756C50.8492 20.504 49.0492 25.544 48.5452 26.876C48.2932 27.524 47.7172 28.028 46.7812 28.352C45.8812 28.64 44.7292 28.136 44.7292 27.164C44.7292 26.912 44.8012 26.624 44.9092 26.336C45.4492 25.328 46.3492 24.86 47.6092 24.896H48.1132C48.1492 24.86 48.1492 24.824 48.1492 24.788C48.1492 24.644 47.6812 24.536 46.7452 24.5C45.3412 24.464 44.2252 24.788 43.4332 25.544C42.9652 25.94 42.7492 26.48 42.7492 27.236C42.7132 28.136 43.2172 28.82 44.2252 29.216C44.9092 29.468 45.8092 29.468 46.8892 29.216L47.7892 28.964C48.4732 28.712 48.9052 28.496 49.1932 28.352C49.7332 28.1 51.2812 27.56 53.7652 26.66C56.0332 25.868 57.3292 25.364 57.7252 25.112C58.3372 24.716 59.1292 23.852 60.0652 22.52C60.3172 22.088 60.6412 21.368 61.0372 20.396C61.5772 19.244 61.9732 18.416 62.2612 17.876C62.6572 17.48 62.9812 17.156 63.2332 16.868L63.4492 16.724ZM70.8466 5.6C70.8106 5.42 70.3786 4.952 70.2706 5.06C70.1266 5.6 69.3706 6.176 67.9666 6.824L65.7346 7.796C64.0426 8.516 63.1786 9.272 63.1786 10.064C63.1786 10.46 63.4306 10.64 63.9346 10.676C64.3306 10.676 64.8706 10.532 65.5186 10.208C65.4106 10.208 65.3386 10.208 65.3026 10.244C65.0866 10.28 64.8706 10.28 64.6906 10.244C64.4386 10.172 64.3306 10.028 64.3306 9.812C64.3666 9.308 64.8706 8.804 65.7706 8.3L66.6346 8.012L62.5666 20.108C61.8466 22.268 61.3426 23.492 61.0906 23.96C60.2626 25.292 59.2546 26.228 58.0306 26.696C58.0666 26.732 58.1386 26.768 58.2466 26.768C58.3906 26.768 58.6066 26.732 58.8946 26.624C59.8666 26.3 60.9466 25.688 62.1346 24.716C64.1866 23.096 65.6266 22.124 66.4546 21.836C66.4186 21.836 66.3826 21.8 66.2746 21.764L65.9866 21.692H65.6626C65.6266 21.656 65.5906 21.548 65.5906 21.44C65.5906 20.792 66.1666 18.812 67.3186 15.536C68.0746 13.376 68.5786 11.936 68.9026 11.108L70.0186 8.264C70.6306 6.716 70.8826 5.816 70.8466 5.6ZM76.2958 5.6C76.2598 5.42 75.8278 4.952 75.7198 5.06C75.5758 5.6 74.8198 6.176 73.4158 6.824L71.1838 7.796C69.4918 8.516 68.6278 9.272 68.6278 10.064C68.6278 10.46 68.8798 10.64 69.3838 10.676C69.7798 10.676 70.3198 10.532 70.9678 10.208C70.8598 10.208 70.7878 10.208 70.7518 10.244C70.5358 10.28 70.3198 10.28 70.1398 10.244C69.8878 10.172 69.7798 10.028 69.7798 9.812C69.8158 9.308 70.3198 8.804 71.2198 8.3L72.0838 8.012L68.0158 20.108C67.2958 22.268 66.7918 23.492 66.5398 23.96C65.7118 25.292 64.7038 26.228 63.4798 26.696C63.5158 26.732 63.5878 26.768 63.6958 26.768C63.8398 26.768 64.0558 26.732 64.3438 26.624C65.3158 26.3 66.3958 25.688 67.5838 24.716C69.6358 23.096 71.0758 22.124 71.9038 21.836C71.8678 21.836 71.8318 21.8 71.7238 21.764L71.4358 21.692H71.1118C71.0758 21.656 71.0398 21.548 71.0398 21.44C71.0398 20.792 71.6158 18.812 72.7678 15.536C73.5238 13.376 74.0278 11.936 74.3518 11.108L75.4678 8.264C76.0798 6.716 76.3318 5.816 76.2958 5.6ZM84.4408 13.484C84.4408 13.448 84.4408 13.448 84.4048 13.448H84.2248C83.3608 13.628 82.2088 14.132 80.8048 14.96C80.2648 15.284 79.7248 15.5 79.1848 15.752C78.9688 15.824 78.9328 15.896 79.0408 15.932C79.3648 15.932 79.7248 15.932 80.1928 15.968C80.0848 16.724 79.8688 17.588 79.4728 18.632C79.4368 18.884 79.1128 19.712 78.5728 21.188C78.2848 21.8 77.7088 22.34 76.8448 22.844L75.8008 23.312C75.9808 22.34 76.4128 20.864 77.0968 18.812L77.7088 16.904C78.5008 14.456 79.7968 12.908 81.6328 12.224C81.5248 12.116 81.2368 12.152 80.7688 12.296C79.9048 12.548 79.1128 12.944 78.4288 13.484C77.2768 14.384 76.4848 14.996 76.0528 15.392C75.1528 16.112 74.3248 16.616 73.4968 16.94C73.2448 17.048 73.2088 17.12 73.3168 17.156H74.5048C74.4688 17.336 74.3968 17.732 74.2168 18.416C73.7848 20.144 73.3888 21.44 72.9928 22.34C72.5248 23.456 71.9848 24.068 71.4448 24.14C71.7328 24.608 72.2728 24.824 73.0648 24.824C74.4688 24.824 75.8368 24.392 77.1688 23.492C77.4208 23.348 77.6368 23.168 77.9248 22.916C77.6368 23.708 77.2408 24.14 76.7368 24.176C76.9888 24.608 77.4928 24.824 78.3208 24.824C79.6528 24.824 80.8768 24.428 81.9928 23.6C82.4248 23.276 82.8208 22.88 83.1448 22.412C83.1448 22.304 83.1448 22.232 83.1808 22.196C83.1088 22.232 82.8208 22.448 82.3168 22.88C81.9928 23.168 81.5248 23.312 80.9848 23.312L82.8208 17.624C83.1448 16.652 83.3248 16.004 83.4328 15.572C83.8648 14.42 84.1888 13.736 84.4408 13.484ZM94.2267 13.484C94.2627 13.448 94.2267 13.376 94.1907 13.34C93.2907 13.736 92.3547 13.952 91.4547 14.06C88.1067 14.456 85.9827 15.284 85.0827 16.616C84.8667 16.94 84.6507 17.516 84.4347 18.344C84.3267 18.74 84.2187 19.316 84.0387 20.144L85.4787 21.008C85.6587 21.044 85.8387 21.008 86.0547 20.936C86.7387 20.504 87.2427 20.108 87.6387 19.784C88.1787 19.46 88.9707 19.028 90.0867 18.56C89.7627 18.884 89.4387 19.136 89.1147 19.388C88.6467 21.332 88.1067 22.592 87.4227 23.204C87.0987 23.528 86.5947 23.672 85.9467 23.708C86.3787 22.592 86.6667 21.692 86.8107 21.08L83.4627 22.484C83.0307 23.744 82.3827 24.608 81.5187 25.148C81.8067 25.184 82.0587 25.184 82.2387 25.148C83.2827 25.148 84.3627 25.004 85.4787 24.716C87.5307 24.176 89.2587 23.42 90.5907 22.484C91.2027 22.052 91.5627 21.692 91.6707 21.404C91.5627 20.756 91.7787 19.64 92.2827 18.092L91.2387 17.552C90.8427 17.516 90.3387 17.66 89.7267 17.984C88.7187 18.452 87.8547 18.92 87.1707 19.388L87.5667 17.984C87.8187 17.084 88.3227 16.292 89.1507 15.68C89.8347 15.356 90.3027 15.176 90.5907 15.068C90.4467 15.356 90.3027 15.644 90.1227 15.932C89.9427 16.328 89.7987 16.76 89.6907 17.156L93.1827 15.824C93.3627 15.356 93.4707 14.96 93.5787 14.672L93.9387 13.952L94.2267 13.484ZM111.718 3.98C111.538 2.576 110.674 1.856 109.198 1.856C107.758 1.856 106.246 2.648 104.698 4.196C103.834 5.06 103.222 5.996 102.898 7.004C102.79 7.292 102.754 7.472 102.754 7.58L103.114 7.112C103.798 6.212 104.446 5.492 105.058 5.024C106.066 4.304 107.218 3.872 108.55 3.764C109.486 3.764 110.602 4.304 110.494 5.24C110.242 7.22 108.838 8.696 106.282 9.668C104.446 10.352 102.322 10.712 99.8384 10.748L101.026 7.724C101.35 6.968 101.458 6.5 101.386 6.32C101.35 6.14 100.918 5.672 100.81 5.78C100.666 6.32 99.9464 6.932 98.6144 7.616L97.6784 8.012C97.4624 8.084 97.2464 8.48 96.9944 9.236L96.5624 10.712C96.2384 10.712 95.7344 10.748 95.0144 10.784C93.6104 10.892 92.7464 10.964 92.4944 11.072C91.6664 11.396 91.1984 12.044 91.1264 12.944V13.124C91.2704 12.944 91.5944 12.692 92.1344 12.368C92.7464 12.008 94.0784 11.792 96.2024 11.756C95.1584 14.672 94.1504 17.66 93.1064 20.828C92.4224 22.88 91.9544 24.14 91.6304 24.68C90.8024 26.012 89.7944 26.948 88.5704 27.416C88.6784 27.524 88.9664 27.488 89.4344 27.344C90.2984 27.092 91.0904 26.696 91.7744 26.156C92.9264 25.256 93.7184 24.644 94.1504 24.248C95.1224 23.492 95.9144 22.988 96.7424 22.664C96.8504 22.628 96.9584 22.592 96.9944 22.556C96.7064 22.448 96.4544 22.412 96.2024 22.412C96.1664 22.376 96.1304 22.268 96.1304 22.16C96.1304 21.584 96.7064 19.604 97.8584 16.256L99.4784 11.72C105.202 11.54 109.054 9.812 111.106 6.5C111.646 5.672 111.826 4.808 111.718 3.98ZM107.457 14.96C107.277 14.636 107.169 14.384 107.169 14.204C107.133 14.096 106.485 14.276 105.261 14.672L103.785 15.14L104.073 14.528C104.397 13.844 104.505 13.376 104.397 13.088C104.289 12.836 103.857 12.332 103.857 12.584C103.677 13.052 102.849 13.664 101.373 14.42C100.329 14.96 99.2849 15.428 98.2409 15.896C97.6289 16.364 97.3049 16.796 97.3049 17.156C97.3049 17.48 97.5209 17.66 97.9889 17.696C98.2409 17.696 98.5649 17.624 98.9609 17.516L99.3929 17.3C99.3929 17.264 99.3209 17.264 99.2129 17.3C98.6369 17.408 98.3489 17.3 98.3489 16.94C98.3489 16.22 99.4649 15.464 100.185 15.644L98.8889 19.28L98.0609 21.764L97.5929 23.132C97.3409 23.816 97.0169 24.536 96.5489 25.256C96.0809 25.94 95.7929 26.372 95.6129 26.552C96.1889 26.372 97.0169 26.012 98.0609 25.4C100.113 24.212 101.157 23.528 101.157 23.384L101.121 23.348C101.049 23.312 101.013 23.168 101.013 22.844C101.049 22.376 101.049 21.98 101.157 21.656L102.633 18.02L103.389 16.112C103.389 16.148 103.389 16.148 103.425 16.184C103.425 16.148 103.425 16.112 103.389 16.076L103.569 15.716C103.857 15.608 104.217 15.5 104.649 15.392C104.829 15.428 104.865 15.536 104.829 15.716C104.685 16.148 104.397 17.012 104.361 17.264C104.037 17.984 103.893 18.524 103.893 18.884C105.009 18.488 106.197 18.056 107.385 17.588C107.241 17.48 107.205 17.3 107.313 17.084C107.637 16.4 107.781 15.932 107.889 15.752L107.457 14.96ZM117.905 13.736C117.473 13.772 116.825 13.844 115.853 14.096C115.025 14.204 114.053 14.276 112.901 14.456C109.913 14.924 108.257 15.716 108.005 16.832C107.825 17.804 108.617 18.344 109.589 18.2C109.985 18.164 110.165 18.092 110.129 17.984C109.589 17.804 109.301 17.516 109.265 17.12C109.229 16.256 110.273 15.608 112.397 15.176C112.865 15.068 113.189 15.032 113.297 15.068C113.585 15.14 113.693 15.32 113.657 15.572L113.117 17.048L108.113 19.208C107.537 19.46 107.033 19.676 106.637 19.928C106.817 20.036 106.925 20.252 106.925 20.54C106.925 20.936 106.781 21.476 106.457 22.124C106.061 22.988 105.809 23.528 105.773 23.708C105.773 24.032 106.529 24.86 106.529 25.256C106.565 25.328 107.213 25.184 108.401 24.788L110.561 24.104L111.281 25.328L112.325 24.608L114.593 23.456C115.781 22.844 116.357 22.34 116.357 21.944C116.357 21.512 116.069 21.332 115.529 21.404C115.673 21.62 115.673 21.872 115.493 22.196C115.205 22.736 114.809 22.952 114.341 22.916C114.305 22.88 114.269 22.808 114.305 22.664C116.141 17.804 117.221 14.996 117.617 14.168L117.905 13.736ZM112.325 19.1L110.813 23.42L110.777 23.528C109.841 23.852 109.265 24.032 109.013 24.068C108.833 24.032 108.797 23.924 108.833 23.744C108.869 23.348 109.049 22.808 109.301 22.196C109.985 20.648 110.309 19.748 110.417 19.496C110.525 19.244 110.669 19.064 110.885 18.92C111.425 18.524 112.037 18.164 112.793 17.876L112.325 19.1ZM135.941 3.98C135.761 2.576 134.897 1.856 133.421 1.856C131.981 1.856 130.469 2.648 128.921 4.196C128.057 5.06 127.445 5.996 127.121 7.004C127.013 7.292 126.977 7.472 126.977 7.58L127.337 7.112C128.021 6.212 128.669 5.492 129.281 5.024C130.289 4.304 131.441 3.872 132.773 3.764C133.709 3.764 134.825 4.304 134.717 5.24C134.465 7.22 133.061 8.696 130.505 9.668C128.669 10.352 126.545 10.712 124.061 10.748L125.249 7.724C125.573 6.968 125.681 6.5 125.609 6.32C125.573 6.14 125.141 5.672 125.033 5.78C124.889 6.32 124.169 6.932 122.837 7.616L121.901 8.012C121.685 8.084 121.469 8.48 121.217 9.236L120.785 10.712C120.461 10.712 119.957 10.748 119.237 10.784C117.833 10.892 116.969 10.964 116.717 11.072C115.889 11.396 115.421 12.044 115.349 12.944V13.124C115.493 12.944 115.817 12.692 116.357 12.368C116.969 12.008 118.301 11.792 120.425 11.756C119.381 14.672 118.373 17.66 117.329 20.828C116.645 22.88 116.177 24.14 115.853 24.68C115.025 26.012 114.017 26.948 112.793 27.416C112.901 27.524 113.189 27.488 113.657 27.344C114.521 27.092 115.313 26.696 115.997 26.156C117.149 25.256 117.941 24.644 118.373 24.248C119.345 23.492 120.137 22.988 120.965 22.664C121.073 22.628 121.181 22.592 121.217 22.556C120.929 22.448 120.677 22.412 120.425 22.412C120.389 22.376 120.353 22.268 120.353 22.16C120.353 21.584 120.929 19.604 122.081 16.256L123.701 11.72C129.425 11.54 133.277 9.812 135.329 6.5C135.869 5.672 136.049 4.808 135.941 3.98ZM129.261 10.892C129.297 10.64 129.081 10.424 128.613 10.244C128.253 10.1 127.929 10.028 127.641 10.028C127.533 10.388 127.317 10.748 126.993 11.108C126.309 11.864 125.265 12.8 123.861 13.988L126.489 12.872C128.325 12.08 129.225 11.432 129.261 10.892ZM129.549 13.088C129.477 12.98 129.333 12.836 129.153 12.656C129.045 12.548 129.009 12.548 129.009 12.584C128.829 13.088 128.001 13.7 126.489 14.456L123.357 15.896C122.745 16.364 122.457 16.76 122.457 17.156C122.457 17.48 122.673 17.66 123.105 17.696C123.357 17.696 123.717 17.624 124.113 17.516L124.545 17.3C124.509 17.264 124.473 17.264 124.365 17.3C123.789 17.408 123.501 17.3 123.501 16.94C123.501 16.22 124.617 15.464 125.337 15.644L122.457 23.96C121.665 26.264 120.369 27.74 118.605 28.352C118.713 28.46 119.001 28.424 119.469 28.28C120.441 27.992 121.521 27.344 122.709 26.372C124.797 24.68 126.237 23.708 127.065 23.528C126.993 23.456 126.705 23.384 126.237 23.348C126.165 23.312 126.129 23.168 126.129 22.844C126.165 22.448 126.201 22.052 126.309 21.656L127.785 18.02C129.081 14.852 129.693 13.52 129.549 13.088ZM139.61 13.88C139.646 13.808 139.646 13.772 139.61 13.736C138.782 14.06 137.378 14.384 135.326 14.636C133.49 14.888 132.194 15.248 131.438 15.716C130.682 16.184 130.142 17.048 129.782 18.344C129.314 20.504 128.918 22.844 128.306 23.564C128.27 23.6 128.054 23.852 127.658 24.392C127.406 24.716 127.154 24.968 126.902 25.148C128.018 25.256 129.35 25.112 130.862 24.716C132.914 24.176 134.642 23.456 135.974 22.484C136.586 22.016 136.946 21.656 137.054 21.404C136.874 20.324 137.342 18.596 138.422 16.184L138.962 15.068L139.358 14.348C139.538 14.096 139.61 13.916 139.61 13.88ZM135.902 15.32C135.902 15.356 135.83 15.464 135.686 15.644L135.47 16.04C134.786 18.308 134.282 19.964 134.03 21.116C133.454 22.736 132.554 23.6 131.366 23.708L131.618 22.952L131.87 22.268L132.95 17.984C133.274 16.652 134.282 15.788 135.902 15.32ZM150.222 14.672C149.934 14.204 149.394 13.988 148.602 13.988C147.45 13.988 146.262 14.312 145.002 14.996C145.47 13.988 145.65 13.34 145.542 13.088C145.434 12.836 145.002 12.332 145.002 12.584C144.822 13.124 144.03 13.7 142.698 14.312L141.69 14.744L140.394 15.248C138.99 16.004 138.27 16.724 138.27 17.372C138.27 17.804 138.522 18.02 138.99 18.02C139.422 18.02 140.43 17.804 140.61 17.516C140.502 17.516 140.43 17.516 140.394 17.552C139.746 17.624 139.422 17.48 139.422 17.12C139.422 16.724 139.746 16.328 140.43 15.932L141.294 15.644C141.114 16.616 140.79 17.84 140.25 19.388C139.71 21.08 139.206 22.268 138.81 22.952C138.018 24.32 137.01 25.22 135.75 25.652C135.858 25.76 136.146 25.76 136.614 25.616C137.586 25.292 138.702 24.68 139.89 23.708C141.51 22.412 142.518 21.656 142.914 21.404L143.706 21.044C144.03 20.9 144.174 20.792 144.066 20.756C144.03 20.756 143.814 20.72 143.382 20.684C143.274 20.612 143.238 20.468 143.238 20.216C143.238 19.748 143.49 18.884 143.958 17.588L144.534 16.04C145.074 15.716 145.506 15.5 145.866 15.464C145.758 15.86 145.218 17.732 144.102 21.296C143.49 23.312 142.986 24.572 142.662 25.148C141.834 26.516 140.826 27.416 139.566 27.884C139.674 27.992 139.962 27.956 140.466 27.812C141.294 27.56 142.086 27.128 142.806 26.552L145.146 24.716C146.082 23.96 146.946 23.456 147.738 23.168C147.846 23.132 147.882 23.06 147.918 23.024C147.918 22.988 147.918 22.988 147.882 22.952H146.73C146.766 22.772 146.838 22.376 147.018 21.692C147.486 19.784 148.062 18.056 148.674 16.472C148.89 15.86 149.07 15.5 149.214 15.32C149.502 14.924 149.826 14.708 150.222 14.672Z" fill="white"/>
<path d="M60.832 53.724C60.868 53.688 60.832 53.652 60.796 53.544C60.616 53.076 60.184 52.86 59.5 52.896C58.96 53.004 58.564 53.076 58.24 53.184C56.872 53.616 55.72 54.156 54.784 54.84C53.416 55.776 52.768 56.784 52.84 57.828C52.876 58.224 52.984 58.692 53.236 59.16C53.236 59.16 53.272 59.016 53.38 58.728C53.488 58.332 53.632 58.008 53.884 57.684C54.712 56.496 56.476 55.488 59.14 54.732C59.212 54.732 59.284 54.732 59.32 54.768C57.844 55.524 56.872 56.064 56.404 56.352C55.756 56.748 55.252 57.216 54.856 57.756C54.208 58.62 53.632 59.772 53.128 61.212C52.984 61.608 52.84 61.86 52.696 61.968C52.66 62.004 52.408 62.076 51.868 62.256L50.428 62.724C50.068 62.832 49.852 62.904 49.816 62.904C49.744 62.868 49.852 62.436 50.14 61.644L51.76 57.144L54.748 48.828C55.576 46.524 56.08 45.084 56.332 44.472C57.088 43.212 57.7 42.276 58.168 41.736C58.312 41.556 58.384 41.448 58.348 41.412C58.312 41.376 58.204 41.412 58.024 41.52L50.644 46.272C49.348 47.136 48.448 47.784 47.98 48.216C46.936 49.188 46.468 50.088 46.576 50.916C46.648 51.456 46.936 51.744 47.476 51.744C48.304 51.744 48.952 51.384 49.456 50.628L49.672 50.268V50.232L49.42 50.34C49.24 50.448 49.096 50.484 48.952 50.484C48.412 50.484 48.16 50.232 48.232 49.764C48.376 48.972 48.88 48.216 49.744 47.46L52.084 45.84L52.336 45.696C52.408 45.696 52.372 45.912 52.192 46.38L51.328 48.756C48.232 57.504 46.432 62.544 45.928 63.876C45.676 64.524 45.1 65.028 44.164 65.352C43.264 65.64 42.112 65.136 42.112 64.164C42.112 63.912 42.184 63.624 42.292 63.336C42.832 62.328 43.732 61.86 44.992 61.896H45.496C45.532 61.86 45.532 61.824 45.532 61.788C45.532 61.644 45.064 61.536 44.128 61.5C42.724 61.464 41.608 61.788 40.816 62.544C40.348 62.94 40.132 63.48 40.132 64.236C40.096 65.136 40.6 65.82 41.608 66.216C42.292 66.468 43.192 66.468 44.272 66.216L45.172 65.964C45.856 65.712 46.288 65.496 46.576 65.352C47.116 65.1 48.664 64.56 51.148 63.66C53.416 62.868 54.712 62.364 55.108 62.112C55.72 61.716 56.512 60.852 57.448 59.52C57.7 59.088 58.024 58.368 58.42 57.396C58.96 56.244 59.356 55.416 59.644 54.876C60.04 54.48 60.364 54.156 60.616 53.868L60.832 53.724ZM74.3494 47.964C74.3494 47.748 74.2054 47.316 73.9174 46.668C73.7374 46.272 73.3414 45.66 72.8014 44.76C72.2254 43.644 71.8294 42.816 71.6134 42.276C71.6134 42.168 71.6854 41.988 71.7934 41.736C72.0814 41.34 72.2614 41.016 72.3334 40.764C72.1534 40.944 71.9014 41.088 71.6494 41.232C71.1454 41.7 70.2454 42.42 68.9494 43.392C66.8974 44.652 64.9174 45.948 63.0094 47.208C61.6774 48.108 60.7774 48.756 60.3454 49.152C59.3014 50.124 58.8334 51.024 58.9414 51.888C59.0134 52.428 59.3014 52.68 59.8414 52.68C60.6694 52.68 61.3534 52.32 61.8574 51.6C61.9654 51.348 62.0374 51.24 62.0374 51.204L61.7854 51.312C61.6414 51.384 61.4974 51.42 61.3174 51.42C60.7054 51.42 60.4894 51.168 60.5974 50.7C60.7054 49.908 61.2094 49.152 62.1094 48.432L64.4494 46.776C64.5574 46.704 64.6294 46.668 64.7014 46.668C64.7014 46.668 64.3774 47.676 63.6934 49.692L59.5174 61.356L59.2654 62.04L60.7414 63.228L62.5054 64.704C63.9094 64.74 65.5294 64.2 67.2934 63.084L67.3654 63.048C68.4454 62.508 69.2014 61.644 69.5974 60.492C70.5694 57.792 71.4334 55.488 72.1894 53.58C72.8014 51.888 73.4854 50.196 74.2414 48.504C74.3134 48.324 74.3494 48.144 74.3494 47.964ZM70.5694 48.144C70.5694 48.252 70.4614 48.612 70.2814 49.224C70.1734 49.692 69.7774 50.772 69.1654 52.536C68.4814 54.444 67.1854 57.792 65.1694 62.652C65.0614 62.868 64.9174 63.084 64.7014 63.3C64.3774 63.372 64.0894 63.408 63.9094 63.408C63.0454 63.372 62.5414 63.084 62.3974 62.616L62.6134 62.04L67.4374 48.9C67.7614 47.928 68.0494 47.208 68.3014 46.704C68.4094 46.524 68.4454 46.38 68.4454 46.272C68.4454 46.056 68.2654 45.768 67.9414 45.444L67.6894 45.192C67.8334 45.084 68.0854 45.084 68.4454 45.12C69.4174 45.228 70.0654 45.948 70.3894 47.28L70.5694 48.144ZM73.4075 64.488C73.0115 64.884 72.5795 65.172 72.0755 65.352C71.1755 65.676 70.0235 65.136 69.9875 64.164C69.9875 63.912 70.0595 63.624 70.2035 63.336C70.7435 62.364 71.6075 61.86 72.8675 61.896H73.4075C73.5515 61.68 73.0835 61.536 72.0035 61.5C70.5995 61.464 69.4835 61.788 68.6915 62.544C68.2235 62.94 68.0075 63.48 68.0075 64.236C68.0075 65.172 68.5115 65.82 69.5195 66.216C70.2035 66.468 71.0675 66.468 72.1835 66.216C73.3715 65.82 74.1995 65.46 74.7395 65.208C75.4235 64.884 76.8275 64.344 79.1315 63.588C81.1835 62.904 82.4075 62.436 82.9475 62.112C83.6315 61.716 84.3875 60.852 85.2875 59.52C85.5395 59.196 85.8635 58.476 86.2595 57.396C86.6555 56.352 87.0875 55.488 87.4835 54.876L88.1675 54.048L88.6715 53.724C88.6715 53.652 88.6715 53.58 88.6355 53.544C88.4195 53.076 87.9875 52.86 87.3395 52.896C86.7995 53.004 86.3675 53.076 86.0435 53.184C84.6395 53.652 83.1635 54.372 81.6875 55.344C80.4275 56.172 79.8515 57.144 79.9595 58.188C79.9955 58.584 80.1035 58.98 80.3555 59.52C80.3555 59.484 80.3555 59.448 80.3915 59.412C80.4275 59.304 80.4275 59.232 80.5355 59.088C80.6435 58.692 80.7875 58.332 81.0035 58.044C81.9755 56.748 83.9555 55.632 86.9795 54.732C87.0515 54.732 87.1235 54.732 87.1595 54.768C85.4675 55.524 84.5315 55.956 84.1355 56.208C83.5235 56.568 83.0915 56.928 82.8395 57.324C82.1915 58.224 81.5435 59.52 80.9315 61.212C80.7875 61.608 80.6435 61.86 80.5355 61.968L79.6715 62.256C78.3395 62.688 77.6555 62.904 77.6195 62.904C77.5475 62.832 77.6555 62.4 77.9435 61.644L79.5995 57.144C80.7155 54.084 81.7235 51.312 82.5875 48.828C83.0555 47.532 83.4515 46.524 83.7755 45.768C83.8475 45.588 83.8835 45.444 83.8835 45.3C83.8835 45.084 83.7395 44.832 83.4155 44.508L83.1635 44.256C83.2715 44.148 83.4515 44.112 83.6675 44.112C83.9195 44.112 84.1355 44.148 84.3515 44.256C84.7475 44.508 84.9995 44.688 85.0715 44.796C85.7195 45.408 86.0075 45.984 85.8995 46.524C85.7915 47.136 85.5755 47.712 85.2875 48.216C84.2435 50.052 83.7395 51.564 83.7755 52.788L88.0595 51.096C87.8075 50.88 87.6995 50.664 87.7355 50.448C87.7715 50.268 88.0595 49.62 88.5275 48.576L89.3555 46.884C89.5715 46.272 89.6435 45.66 89.5715 45.084C89.5355 44.688 89.2835 44.148 88.7435 43.464C88.2035 42.708 87.9155 42.132 87.8075 41.808L87.6275 41.304C87.6635 41.052 87.6995 40.872 87.8075 40.764C88.0955 40.368 88.2755 40.044 88.3475 39.828C88.3475 39.828 88.1315 39.972 87.6635 40.296L84.4235 42.456L79.9955 45.192C78.0875 46.416 76.6835 47.424 75.8195 48.216C74.7755 49.188 74.3075 50.088 74.4155 50.916C74.5235 51.456 74.8475 51.744 75.3155 51.744C76.1435 51.744 76.7915 51.384 77.2955 50.628L77.5115 50.268V50.232L77.2595 50.34C77.0795 50.448 76.9355 50.484 76.7555 50.484C76.2155 50.484 75.9995 50.232 76.0715 49.764C76.2155 48.972 76.7195 48.216 77.5475 47.46L79.8875 45.84L80.1395 45.696C80.2475 45.696 80.2115 45.912 80.0315 46.38C79.6355 47.532 79.3475 48.324 79.1675 48.756C75.9275 57.936 74.1275 62.976 73.7675 63.876C73.6595 64.164 73.5155 64.38 73.4075 64.488ZM85.4363 66.144C84.6083 66.648 83.8523 67.08 83.1323 67.476L82.9883 67.584C82.9523 67.62 82.9883 67.62 83.0243 67.62H83.2043C83.6363 67.512 84.0683 67.404 84.4643 67.26C86.9123 66.36 89.0003 65.532 90.8363 64.812C90.6563 64.632 90.5843 64.308 90.6203 63.84C90.6563 63.516 90.8003 63.084 90.9803 62.544L92.6003 58.044L95.5883 49.728C96.1283 48.108 96.5603 46.992 96.8483 46.38C97.6043 44.76 98.6483 43.392 100.016 42.204C100.52 41.772 100.916 41.412 101.204 41.088C101.42 40.872 101.456 40.764 101.348 40.764C101.312 40.764 101.276 40.8 101.168 40.836C99.7283 41.844 98.4683 42.672 97.4243 43.356C94.5443 45.192 92.6003 46.488 91.4843 47.172C90.1883 48.036 89.2883 48.684 88.8203 49.116C87.7763 50.088 87.3083 50.988 87.4163 51.816C87.5243 52.356 87.8483 52.644 88.3163 52.644C89.1803 52.644 89.8283 52.284 90.2963 51.528C90.4403 51.348 90.5123 51.24 90.5123 51.168V51.132L90.2603 51.24C90.0803 51.348 89.9363 51.384 89.7923 51.384C89.2523 51.384 89.0003 51.132 89.0723 50.664C89.2163 49.836 89.7203 49.116 90.5483 48.504L92.8523 46.992L93.1043 46.848C93.1763 46.848 93.1403 47.064 92.9603 47.532L92.3483 49.116C92.2403 49.332 92.2043 49.512 92.1683 49.656C89.0003 58.584 87.3083 63.444 86.9843 64.272C86.6603 65.1 86.1203 65.748 85.4363 66.144ZM111.497 47.964C111.497 47.748 111.353 47.316 111.065 46.668C110.885 46.272 110.525 45.66 109.949 44.76C109.373 43.644 108.977 42.816 108.761 42.276C108.797 42.024 108.833 41.844 108.941 41.736C109.229 41.34 109.409 41.016 109.481 40.764L108.797 41.232C107.897 41.916 106.997 42.636 106.133 43.392C103.253 45.228 101.273 46.524 100.157 47.208C98.8612 48.072 97.9612 48.72 97.4932 49.152C96.4492 50.124 95.9812 51.06 96.0892 51.888C96.1612 52.428 96.4852 52.68 97.0252 52.68C97.8532 52.68 98.5012 52.32 99.0052 51.6C99.1492 51.384 99.2212 51.24 99.2212 51.204H99.1852L98.9692 51.312C98.7892 51.384 98.6092 51.42 98.4652 51.42C97.9252 51.42 97.6732 51.168 97.7452 50.7C97.8892 49.908 98.3932 49.152 99.2572 48.432L101.597 46.776C101.705 46.704 101.777 46.668 101.849 46.668C101.921 46.668 101.885 46.884 101.741 47.316L100.841 49.692C99.6532 53.04 98.8612 55.38 98.3932 56.712C97.1332 60.312 96.2692 62.724 95.8012 63.948C95.5492 64.632 95.0452 65.1 94.2892 65.352C93.3892 65.676 92.2732 65.136 92.2372 64.164C92.2372 63.912 92.3092 63.624 92.4172 63.336C92.9572 62.328 93.8572 61.86 95.1172 61.896H95.6572C95.8012 61.68 95.3332 61.536 94.2532 61.5C92.8492 61.464 91.7332 61.788 90.9412 62.544C90.4732 62.94 90.2572 63.48 90.2572 64.236C90.2572 64.992 90.6172 65.568 91.3012 65.964C91.9132 66.324 92.5972 66.468 93.3532 66.396C94.2172 66.324 95.3692 65.964 96.8092 65.28C97.6732 64.884 98.6092 64.524 99.6532 64.128C99.7252 64.092 99.7252 64.02 99.6532 63.84C99.5812 63.66 99.5452 63.48 99.5452 63.3C99.5452 63.048 99.6892 62.472 99.9772 61.644L103.001 53.328L104.585 48.9C104.837 48.144 105.161 47.424 105.485 46.704C105.557 46.56 105.593 46.416 105.593 46.272C105.593 46.056 105.413 45.768 105.089 45.444L104.837 45.192C104.981 45.084 105.233 45.084 105.593 45.12C106.565 45.228 107.213 45.948 107.537 47.28C107.645 47.676 107.681 47.964 107.717 48.144C107.609 48.72 107.501 49.08 107.465 49.224C106.925 50.772 106.061 53.22 104.801 56.64C103.937 58.98 103.289 60.6 102.749 61.572C102.353 62.112 102.065 62.472 101.813 62.652L101.885 62.76C102.713 62.508 103.433 62.22 104.117 61.824C105.377 61.14 106.205 60.744 106.529 60.708C106.853 60.672 107.069 60.672 107.249 60.708C107.357 60.672 106.925 60.24 106.961 60.06L107.357 58.836L107.789 57.648C109.121 54.012 110.345 50.952 111.389 48.504C111.461 48.324 111.497 48.144 111.497 47.964Z" fill="white"/>
</svg>
