<svg width="151" height="73" viewBox="0 0 151 73" fill="none" xmlns="http://www.w3.org/2000/svg">
<path d="M22.664 8.372C22.7 8.12 22.556 7.724 22.304 7.184L21.548 6.032C21.224 5.564 21.008 5.168 20.9 4.844L20.72 4.304C20.756 4.052 20.792 3.872 20.9 3.764C21.188 3.368 21.368 3.044 21.44 2.828C21.44 2.828 21.224 2.972 20.756 3.296L17.516 5.456L13.124 8.156C11.288 9.344 9.92 10.352 9.02 11.18C8.012 12.116 7.508 13.016 7.508 13.916C7.688 14.456 8.012 14.708 8.552 14.708C9.308 14.708 9.92 14.348 10.388 13.628C10.496 13.34 10.568 13.196 10.568 13.196C10.532 13.196 10.496 13.232 10.46 13.304C10.28 13.412 10.1 13.448 9.848 13.448C9.38 13.448 9.164 13.232 9.164 12.764C9.344 11.972 9.848 11.216 10.712 10.46L12.98 8.84L13.232 8.696C13.34 8.696 13.304 8.912 13.124 9.38C12.8 10.388 12.44 11.288 12.116 12.116V13.448L12.26 13.628C13.448 14.24 14.168 14.636 14.384 14.852C14.42 14.888 14.456 14.888 14.492 14.888L16.256 16.04C16.94 16.58 17.3 17.228 17.3 17.912C17.3 18.56 17.048 19.388 16.544 20.432C15.932 21.764 15.356 22.988 14.888 24.104C14.744 24.428 14.456 24.68 14.06 24.824C12.656 25.292 11.792 25.58 11.324 25.76C11.036 25.868 10.82 25.904 10.712 25.904C10.604 25.796 10.712 25.4 11.036 24.644L13.016 19.928C13.124 19.676 13.628 18.956 14.564 17.768C15.14 17.012 15.176 16.652 14.708 16.652C14.672 16.652 14.564 16.688 14.42 16.724L11.036 18.02C10.568 18.2 10.568 18.164 10.244 18.74C9.056 21.476 8.084 23.78 7.328 25.796C7.076 26.408 6.86 26.876 6.68 27.2C6.356 27.668 5.78 28.064 4.952 28.352C4.052 28.64 2.936 28.136 2.9 27.164C2.9 26.912 2.972 26.624 3.116 26.336C3.656 25.364 4.52 24.86 5.78 24.896H6.32C6.464 24.68 5.996 24.536 4.916 24.5C3.512 24.464 2.396 24.788 1.604 25.544C1.136 25.94 0.92 26.48 0.92 27.236C0.92 28.136 1.424 28.82 2.396 29.216C3.08 29.468 3.944 29.468 5.06 29.216C6.176 28.964 7.652 28.46 9.524 27.632C12.296 26.444 14.42 25.724 15.968 25.436C16.652 25.328 17.264 25.22 17.732 25.184C18.056 25.148 18.272 25.148 18.452 25.148L18.416 25.004C18.416 24.644 19.172 22.592 20.72 18.884C21.044 18.056 21.152 17.408 21.044 16.868C20.792 15.608 19.928 14.456 18.452 13.376L18.164 13.196L17.588 12.8L17.336 12.584C17.3 12.548 17.192 12.584 17.048 12.692C16.148 13.304 15.464 13.772 15.032 14.024C14.996 14.06 14.996 14.06 14.96 14.06L15.896 11.144C16.112 10.496 16.436 9.704 16.868 8.768C16.94 8.624 16.976 8.48 16.976 8.3C16.976 8.084 16.832 7.832 16.508 7.508L16.256 7.256C16.508 7.076 16.904 7.076 17.444 7.256C17.948 7.436 18.272 7.616 18.416 7.76C18.956 8.3 19.244 8.84 19.244 9.308C19.244 9.704 19.064 10.244 18.704 10.928C18.344 11.504 18.092 11.828 17.912 11.936C17.876 12.044 17.948 12.116 18.128 12.152C18.56 12.152 19.136 11.9 19.82 11.396C21.656 10.028 22.592 9.02 22.664 8.372ZM27.8351 10.892C27.8711 10.64 27.6551 10.424 27.1871 10.244C26.8271 10.1 26.5031 10.028 26.2151 10.028C26.1071 10.388 25.8911 10.748 25.5671 11.108C24.8831 11.864 23.8391 12.8 22.4351 13.988L25.0631 12.872C26.8991 12.08 27.7991 11.432 27.8351 10.892ZM28.1231 13.088C28.0511 12.98 27.9071 12.836 27.7271 12.656C27.6191 12.548 27.5831 12.548 27.5831 12.584C27.4031 13.088 26.5751 13.7 25.0631 14.456L21.9311 15.896C21.3191 16.364 21.0311 16.76 21.0311 17.156C21.0311 17.48 21.2471 17.66 21.6791 17.696C21.9311 17.696 22.2911 17.624 22.6871 17.516L23.1191 17.3C23.0831 17.264 23.0471 17.264 22.9391 17.3C22.3631 17.408 22.0751 17.3 22.0751 16.94C22.0751 16.22 23.1911 15.464 23.9111 15.644L21.0311 23.96C20.2391 26.264 18.9431 27.74 17.1791 28.352C17.2871 28.46 17.5751 28.424 18.0431 28.28C19.0151 27.992 20.0951 27.344 21.2831 26.372C23.3711 24.68 24.8111 23.708 25.6391 23.528C25.5671 23.456 25.2791 23.384 24.8111 23.348C24.7391 23.312 24.7031 23.168 24.7031 22.844C24.7391 22.448 24.7751 22.052 24.8831 21.656L26.3591 18.02C27.6551 14.852 28.2671 13.52 28.1231 13.088ZM46.6442 3.98C46.4642 2.576 45.6002 1.856 44.1242 1.856C42.6842 1.856 41.1722 2.648 39.6242 4.196C38.7602 5.06 38.1482 5.996 37.8242 7.004C37.7162 7.292 37.6802 7.472 37.6802 7.58L38.0402 7.112C38.7242 6.212 39.3722 5.492 39.9842 5.024C40.9922 4.304 42.1442 3.872 43.4762 3.764C44.4122 3.764 45.5282 4.304 45.4202 5.24C45.1682 7.22 43.7642 8.696 41.2082 9.668C39.3722 10.352 37.2482 10.712 34.7642 10.748L35.9522 7.724C36.2762 6.968 36.3842 6.5 36.3122 6.32C36.2762 6.14 35.8442 5.672 35.7362 5.78C35.5922 6.32 34.8722 6.932 33.5402 7.616L32.6042 8.012C32.3882 8.084 32.1722 8.48 31.9202 9.236L31.4882 10.712C31.1642 10.712 30.6602 10.748 29.9402 10.784C28.5362 10.892 27.6722 10.964 27.4202 11.072C26.5922 11.396 26.1242 12.044 26.0522 12.944V13.124C26.1962 12.944 26.5202 12.692 27.0602 12.368C27.6722 12.008 29.0042 11.792 31.1282 11.756C30.0842 14.672 29.0762 17.66 28.0322 20.828C27.3482 22.88 26.8802 24.14 26.5562 24.68C25.7282 26.012 24.7202 26.948 23.4962 27.416C23.6042 27.524 23.8922 27.488 24.3602 27.344C25.2242 27.092 26.0162 26.696 26.7002 26.156C27.8522 25.256 28.6442 24.644 29.0762 24.248C30.0482 23.492 30.8402 22.988 31.6682 22.664C31.7762 22.628 31.8842 22.592 31.9202 22.556C31.6322 22.448 31.3802 22.412 31.1282 22.412C31.0922 22.376 31.0562 22.268 31.0562 22.16C31.0562 21.584 31.6322 19.604 32.7842 16.256L34.4042 11.72C40.1282 11.54 43.9802 9.812 46.0322 6.5C46.5722 5.672 46.7522 4.808 46.6442 3.98ZM49.648 12.98C49.648 12.98 49.648 12.944 49.612 12.908C49.54 12.908 49.468 12.908 49.432 12.944C49.036 13.052 48.568 13.196 48.1 13.376C45.796 14.78 44.392 15.572 43.816 15.824C43.636 15.932 43.564 15.968 43.672 16.004C44.14 16.112 44.392 16.328 44.392 16.616C44.392 16.652 44.32 16.904 44.212 17.444C43.816 19.028 43.42 20.18 43.024 20.936C42.376 22.16 41.548 23.024 40.504 23.528L40.648 23.024C40.828 22.556 41.152 21.476 41.692 19.712C42.088 18.38 42.484 17.264 42.916 16.436C43.168 15.896 43.528 15.14 43.924 14.096C43.456 14.852 42.556 15.644 41.224 16.472C39.964 17.3 38.848 17.804 37.948 18.056C37.912 18.092 37.912 18.092 37.876 18.092L37.804 18.128C37.804 18.092 37.876 18.128 37.984 18.236C38.272 18.2 38.632 18.2 39.1 18.2C39.208 18.236 38.956 19.1 38.416 20.828L38.38 20.792C37.84 21.584 37.12 22.232 36.184 22.7C35.932 22.808 35.752 22.844 35.644 22.88C36.112 21.476 36.436 20.504 36.688 19.928C38.164 15.32 39.856 12.692 41.764 12.008C41.656 11.9 41.368 11.9 40.9 12.044C40.072 12.296 39.244 12.764 38.416 13.376L36.184 15.176C35.248 15.932 34.384 16.472 33.628 16.724C33.376 16.796 33.34 16.868 33.484 16.904H34.636C34.6 17.084 34.528 17.48 34.348 18.164C34.024 19.46 33.556 20.864 32.944 22.34C32.476 23.456 31.936 24.068 31.396 24.14C31.648 24.536 32.08 24.716 32.692 24.716C34.132 24.716 35.824 24.032 37.732 22.7C37.336 23.636 36.868 24.104 36.328 24.14C36.652 24.608 37.336 24.86 38.452 24.824C39.208 24.788 40.072 24.608 40.972 24.212C43.78 23.024 45.832 20.936 47.092 17.876C48.172 15.248 48.712 13.916 48.748 13.88C48.928 13.592 49.216 13.34 49.54 13.088C49.612 13.052 49.648 13.016 49.648 12.98ZM63.4492 16.724C63.4852 16.688 63.4492 16.652 63.4132 16.544C63.2332 16.076 62.8012 15.86 62.1172 15.896C61.5772 16.004 61.1812 16.076 60.8572 16.184C59.4892 16.616 58.3372 17.156 57.4012 17.84C56.0332 18.776 55.3852 19.784 55.4572 20.828C55.4932 21.224 55.6012 21.692 55.8532 22.16C55.8532 22.16 55.8892 22.016 55.9972 21.728C56.1052 21.332 56.2492 21.008 56.5012 20.684C57.3292 19.496 59.0932 18.488 61.7572 17.732C61.8292 17.732 61.9012 17.732 61.9372 17.768C60.4612 18.524 59.4892 19.064 59.0212 19.352C58.3732 19.748 57.8692 20.216 57.4732 20.756C56.8252 21.62 56.2492 22.772 55.7452 24.212C55.6012 24.608 55.4572 24.86 55.3132 24.968C55.2772 25.004 55.0252 25.076 54.4852 25.256L53.0452 25.724C52.6852 25.832 52.4692 25.904 52.4332 25.904C52.3612 25.868 52.4692 25.436 52.7572 24.644L54.3772 20.144L57.3652 11.828C58.1932 9.524 58.6972 8.084 58.9492 7.472C59.7052 6.212 60.3172 5.276 60.7852 4.736C60.9292 4.556 61.0012 4.448 60.9652 4.412C60.9292 4.376 60.8212 4.412 60.6412 4.52L53.2612 9.272C51.9652 10.136 51.0652 10.784 50.5972 11.216C49.5532 12.188 49.0852 13.088 49.1932 13.916C49.2652 14.456 49.5532 14.744 50.0932 14.744C50.9212 14.744 51.5692 14.384 52.0732 13.628L52.2892 13.268V13.232L52.0372 13.34C51.8572 13.448 51.7132 13.484 51.5692 13.484C51.0292 13.484 50.7772 13.232 50.8492 12.764C50.9932 11.972 51.4972 11.216 52.3612 10.46L54.7012 8.84L54.9532 8.696C55.0252 8.696 54.9892 8.912 54.8092 9.38L53.9452 11.756C50.8492 20.504 49.0492 25.544 48.5452 26.876C48.2932 27.524 47.7172 28.028 46.7812 28.352C45.8812 28.64 44.7292 28.136 44.7292 27.164C44.7292 26.912 44.8012 26.624 44.9092 26.336C45.4492 25.328 46.3492 24.86 47.6092 24.896H48.1132C48.1492 24.86 48.1492 24.824 48.1492 24.788C48.1492 24.644 47.6812 24.536 46.7452 24.5C45.3412 24.464 44.2252 24.788 43.4332 25.544C42.9652 25.94 42.7492 26.48 42.7492 27.236C42.7132 28.136 43.2172 28.82 44.2252 29.216C44.9092 29.468 45.8092 29.468 46.8892 29.216L47.7892 28.964C48.4732 28.712 48.9052 28.496 49.1932 28.352C49.7332 28.1 51.2812 27.56 53.7652 26.66C56.0332 25.868 57.3292 25.364 57.7252 25.112C58.3372 24.716 59.1292 23.852 60.0652 22.52C60.3172 22.088 60.6412 21.368 61.0372 20.396C61.5772 19.244 61.9732 18.416 62.2612 17.876C62.6572 17.48 62.9812 17.156 63.2332 16.868L63.4492 16.724ZM70.8466 5.6C70.8106 5.42 70.3786 4.952 70.2706 5.06C70.1266 5.6 69.3706 6.176 67.9666 6.824L65.7346 7.796C64.0426 8.516 63.1786 9.272 63.1786 10.064C63.1786 10.46 63.4306 10.64 63.9346 10.676C64.3306 10.676 64.8706 10.532 65.5186 10.208C65.4106 10.208 65.3386 10.208 65.3026 10.244C65.0866 10.28 64.8706 10.28 64.6906 10.244C64.4386 10.172 64.3306 10.028 64.3306 9.812C64.3666 9.308 64.8706 8.804 65.7706 8.3L66.6346 8.012L62.5666 20.108C61.8466 22.268 61.3426 23.492 61.0906 23.96C60.2626 25.292 59.2546 26.228 58.0306 26.696C58.0666 26.732 58.1386 26.768 58.2466 26.768C58.3906 26.768 58.6066 26.732 58.8946 26.624C59.8666 26.3 60.9466 25.688 62.1346 24.716C64.1866 23.096 65.6266 22.124 66.4546 21.836C66.4186 21.836 66.3826 21.8 66.2746 21.764L65.9866 21.692H65.6626C65.6266 21.656 65.5906 21.548 65.5906 21.44C65.5906 20.792 66.1666 18.812 67.3186 15.536C68.0746 13.376 68.5786 11.936 68.9026 11.108L70.0186 8.264C70.6306 6.716 70.8826 5.816 70.8466 5.6ZM76.2958 5.6C76.2598 5.42 75.8278 4.952 75.7198 5.06C75.5758 5.6 74.8198 6.176 73.4158 6.824L71.1838 7.796C69.4918 8.516 68.6278 9.272 68.6278 10.064C68.6278 10.46 68.8798 10.64 69.3838 10.676C69.7798 10.676 70.3198 10.532 70.9678 10.208C70.8598 10.208 70.7878 10.208 70.7518 10.244C70.5358 10.28 70.3198 10.28 70.1398 10.244C69.8878 10.172 69.7798 10.028 69.7798 9.812C69.8158 9.308 70.3198 8.804 71.2198 8.3L72.0838 8.012L68.0158 20.108C67.2958 22.268 66.7918 23.492 66.5398 23.96C65.7118 25.292 64.7038 26.228 63.4798 26.696C63.5158 26.732 63.5878 26.768 63.6958 26.768C63.8398 26.768 64.0558 26.732 64.3438 26.624C65.3158 26.3 66.3958 25.688 67.5838 24.716C69.6358 23.096 71.0758 22.124 71.9038 21.836C71.8678 21.836 71.8318 21.8 71.7238 21.764L71.4358 21.692H71.1118C71.0758 21.656 71.0398 21.548 71.0398 21.44C71.0398 20.792 71.6158 18.812 72.7678 15.536C73.5238 13.376 74.0278 11.936 74.3518 11.108L75.4678 8.264C76.0798 6.716 76.3318 5.816 76.2958 5.6ZM84.4408 13.484C84.4408 13.448 84.4408 13.448 84.4048 13.448H84.2248C83.3608 13.628 82.2088 14.132 80.8048 14.96C80.2648 15.284 79.7248 15.5 79.1848 15.752C78.9688 15.824 78.9328 15.896 79.0408 15.932C79.3648 15.932 79.7248 15.932 80.1928 15.968C80.0848 16.724 79.8688 17.588 79.4728 18.632C79.4368 18.884 79.1128 19.712 78.5728 21.188C78.2848 21.8 77.7088 22.34 76.8448 22.844L75.8008 23.312C75.9808 22.34 76.4128 20.864 77.0968 18.812L77.7088 16.904C78.5008 14.456 79.7968 12.908 81.6328 12.224C81.5248 12.116 81.2368 12.152 80.7688 12.296C79.9048 12.548 79.1128 12.944 78.4288 13.484C77.2768 14.384 76.4848 14.996 76.0528 15.392C75.1528 16.112 74.3248 16.616 73.4968 16.94C73.2448 17.048 73.2088 17.12 73.3168 17.156H74.5048C74.4688 17.336 74.3968 17.732 74.2168 18.416C73.7848 20.144 73.3888 21.44 72.9928 22.34C72.5248 23.456 71.9848 24.068 71.4448 24.14C71.7328 24.608 72.2728 24.824 73.0648 24.824C74.4688 24.824 75.8368 24.392 77.1688 23.492C77.4208 23.348 77.6368 23.168 77.9248 22.916C77.6368 23.708 77.2408 24.14 76.7368 24.176C76.9888 24.608 77.4928 24.824 78.3208 24.824C79.6528 24.824 80.8768 24.428 81.9928 23.6C82.4248 23.276 82.8208 22.88 83.1448 22.412C83.1448 22.304 83.1448 22.232 83.1808 22.196C83.1088 22.232 82.8208 22.448 82.3168 22.88C81.9928 23.168 81.5248 23.312 80.9848 23.312L82.8208 17.624C83.1448 16.652 83.3248 16.004 83.4328 15.572C83.8648 14.42 84.1888 13.736 84.4408 13.484ZM94.2267 13.484C94.2627 13.448 94.2267 13.376 94.1907 13.34C93.2907 13.736 92.3547 13.952 91.4547 14.06C88.1067 14.456 85.9827 15.284 85.0827 16.616C84.8667 16.94 84.6507 17.516 84.4347 18.344C84.3267 18.74 84.2187 19.316 84.0387 20.144L85.4787 21.008C85.6587 21.044 85.8387 21.008 86.0547 20.936C86.7387 20.504 87.2427 20.108 87.6387 19.784C88.1787 19.46 88.9707 19.028 90.0867 18.56C89.7627 18.884 89.4387 19.136 89.1147 19.388C88.6467 21.332 88.1067 22.592 87.4227 23.204C87.0987 23.528 86.5947 23.672 85.9467 23.708C86.3787 22.592 86.6667 21.692 86.8107 21.08L83.4627 22.484C83.0307 23.744 82.3827 24.608 81.5187 25.148C81.8067 25.184 82.0587 25.184 82.2387 25.148C83.2827 25.148 84.3627 25.004 85.4787 24.716C87.5307 24.176 89.2587 23.42 90.5907 22.484C91.2027 22.052 91.5627 21.692 91.6707 21.404C91.5627 20.756 91.7787 19.64 92.2827 18.092L91.2387 17.552C90.8427 17.516 90.3387 17.66 89.7267 17.984C88.7187 18.452 87.8547 18.92 87.1707 19.388L87.5667 17.984C87.8187 17.084 88.3227 16.292 89.1507 15.68C89.8347 15.356 90.3027 15.176 90.5907 15.068C90.4467 15.356 90.3027 15.644 90.1227 15.932C89.9427 16.328 89.7987 16.76 89.6907 17.156L93.1827 15.824C93.3627 15.356 93.4707 14.96 93.5787 14.672L93.9387 13.952L94.2267 13.484ZM111.718 3.98C111.538 2.576 110.674 1.856 109.198 1.856C107.758 1.856 106.246 2.648 104.698 4.196C103.834 5.06 103.222 5.996 102.898 7.004C102.79 7.292 102.754 7.472 102.754 7.58L103.114 7.112C103.798 6.212 104.446 5.492 105.058 5.024C106.066 4.304 107.218 3.872 108.55 3.764C109.486 3.764 110.602 4.304 110.494 5.24C110.242 7.22 108.838 8.696 106.282 9.668C104.446 10.352 102.322 10.712 99.8384 10.748L101.026 7.724C101.35 6.968 101.458 6.5 101.386 6.32C101.35 6.14 100.918 5.672 100.81 5.78C100.666 6.32 99.9464 6.932 98.6144 7.616L97.6784 8.012C97.4624 8.084 97.2464 8.48 96.9944 9.236L96.5624 10.712C96.2384 10.712 95.7344 10.748 95.0144 10.784C93.6104 10.892 92.7464 10.964 92.4944 11.072C91.6664 11.396 91.1984 12.044 91.1264 12.944V13.124C91.2704 12.944 91.5944 12.692 92.1344 12.368C92.7464 12.008 94.0784 11.792 96.2024 11.756C95.1584 14.672 94.1504 17.66 93.1064 20.828C92.4224 22.88 91.9544 24.14 91.6304 24.68C90.8024 26.012 89.7944 26.948 88.5704 27.416C88.6784 27.524 88.9664 27.488 89.4344 27.344C90.2984 27.092 91.0904 26.696 91.7744 26.156C92.9264 25.256 93.7184 24.644 94.1504 24.248C95.1224 23.492 95.9144 22.988 96.7424 22.664C96.8504 22.628 96.9584 22.592 96.9944 22.556C96.7064 22.448 96.4544 22.412 96.2024 22.412C96.1664 22.376 96.1304 22.268 96.1304 22.16C96.1304 21.584 96.7064 19.604 97.8584 16.256L99.4784 11.72C105.202 11.54 109.054 9.812 111.106 6.5C111.646 5.672 111.826 4.808 111.718 3.98ZM107.457 14.96C107.277 14.636 107.169 14.384 107.169 14.204C107.133 14.096 106.485 14.276 105.261 14.672L103.785 15.14L104.073 14.528C104.397 13.844 104.505 13.376 104.397 13.088C104.289 12.836 103.857 12.332 103.857 12.584C103.677 13.052 102.849 13.664 101.373 14.42C100.329 14.96 99.2849 15.428 98.2409 15.896C97.6289 16.364 97.3049 16.796 97.3049 17.156C97.3049 17.48 97.5209 17.66 97.9889 17.696C98.2409 17.696 98.5649 17.624 98.9609 17.516L99.3929 17.3C99.3929 17.264 99.3209 17.264 99.2129 17.3C98.6369 17.408 98.3489 17.3 98.3489 16.94C98.3489 16.22 99.4649 15.464 100.185 15.644L98.8889 19.28L98.0609 21.764L97.5929 23.132C97.3409 23.816 97.0169 24.536 96.5489 25.256C96.0809 25.94 95.7929 26.372 95.6129 26.552C96.1889 26.372 97.0169 26.012 98.0609 25.4C100.113 24.212 101.157 23.528 101.157 23.384L101.121 23.348C101.049 23.312 101.013 23.168 101.013 22.844C101.049 22.376 101.049 21.98 101.157 21.656L102.633 18.02L103.389 16.112C103.389 16.148 103.389 16.148 103.425 16.184C103.425 16.148 103.425 16.112 103.389 16.076L103.569 15.716C103.857 15.608 104.217 15.5 104.649 15.392C104.829 15.428 104.865 15.536 104.829 15.716C104.685 16.148 104.397 17.012 104.361 17.264C104.037 17.984 103.893 18.524 103.893 18.884C105.009 18.488 106.197 18.056 107.385 17.588C107.241 17.48 107.205 17.3 107.313 17.084C107.637 16.4 107.781 15.932 107.889 15.752L107.457 14.96ZM117.905 13.736C117.473 13.772 116.825 13.844 115.853 14.096C115.025 14.204 114.053 14.276 112.901 14.456C109.913 14.924 108.257 15.716 108.005 16.832C107.825 17.804 108.617 18.344 109.589 18.2C109.985 18.164 110.165 18.092 110.129 17.984C109.589 17.804 109.301 17.516 109.265 17.12C109.229 16.256 110.273 15.608 112.397 15.176C112.865 15.068 113.189 15.032 113.297 15.068C113.585 15.14 113.693 15.32 113.657 15.572L113.117 17.048L108.113 19.208C107.537 19.46 107.033 19.676 106.637 19.928C106.817 20.036 106.925 20.252 106.925 20.54C106.925 20.936 106.781 21.476 106.457 22.124C106.061 22.988 105.809 23.528 105.773 23.708C105.773 24.032 106.529 24.86 106.529 25.256C106.565 25.328 107.213 25.184 108.401 24.788L110.561 24.104L111.281 25.328L112.325 24.608L114.593 23.456C115.781 22.844 116.357 22.34 116.357 21.944C116.357 21.512 116.069 21.332 115.529 21.404C115.673 21.62 115.673 21.872 115.493 22.196C115.205 22.736 114.809 22.952 114.341 22.916C114.305 22.88 114.269 22.808 114.305 22.664C116.141 17.804 117.221 14.996 117.617 14.168L117.905 13.736ZM112.325 19.1L110.813 23.42L110.777 23.528C109.841 23.852 109.265 24.032 109.013 24.068C108.833 24.032 108.797 23.924 108.833 23.744C108.869 23.348 109.049 22.808 109.301 22.196C109.985 20.648 110.309 19.748 110.417 19.496C110.525 19.244 110.669 19.064 110.885 18.92C111.425 18.524 112.037 18.164 112.793 17.876L112.325 19.1ZM135.941 3.98C135.761 2.576 134.897 1.856 133.421 1.856C131.981 1.856 130.469 2.648 128.921 4.196C128.057 5.06 127.445 5.996 127.121 7.004C127.013 7.292 126.977 7.472 126.977 7.58L127.337 7.112C128.021 6.212 128.669 5.492 129.281 5.024C130.289 4.304 131.441 3.872 132.773 3.764C133.709 3.764 134.825 4.304 134.717 5.24C134.465 7.22 133.061 8.696 130.505 9.668C128.669 10.352 126.545 10.712 124.061 10.748L125.249 7.724C125.573 6.968 125.681 6.5 125.609 6.32C125.573 6.14 125.141 5.672 125.033 5.78C124.889 6.32 124.169 6.932 122.837 7.616L121.901 8.012C121.685 8.084 121.469 8.48 121.217 9.236L120.785 10.712C120.461 10.712 119.957 10.748 119.237 10.784C117.833 10.892 116.969 10.964 116.717 11.072C115.889 11.396 115.421 12.044 115.349 12.944V13.124C115.493 12.944 115.817 12.692 116.357 12.368C116.969 12.008 118.301 11.792 120.425 11.756C119.381 14.672 118.373 17.66 117.329 20.828C116.645 22.88 116.177 24.14 115.853 24.68C115.025 26.012 114.017 26.948 112.793 27.416C112.901 27.524 113.189 27.488 113.657 27.344C114.521 27.092 115.313 26.696 115.997 26.156C117.149 25.256 117.941 24.644 118.373 24.248C119.345 23.492 120.137 22.988 120.965 22.664C121.073 22.628 121.181 22.592 121.217 22.556C120.929 22.448 120.677 22.412 120.425 22.412C120.389 22.376 120.353 22.268 120.353 22.16C120.353 21.584 120.929 19.604 122.081 16.256L123.701 11.72C129.425 11.54 133.277 9.812 135.329 6.5C135.869 5.672 136.049 4.808 135.941 3.98ZM129.261 10.892C129.297 10.64 129.081 10.424 128.613 10.244C128.253 10.1 127.929 10.028 127.641 10.028C127.533 10.388 127.317 10.748 126.993 11.108C126.309 11.864 125.265 12.8 123.861 13.988L126.489 12.872C128.325 12.08 129.225 11.432 129.261 10.892ZM129.549 13.088C129.477 12.98 129.333 12.836 129.153 12.656C129.045 12.548 129.009 12.548 129.009 12.584C128.829 13.088 128.001 13.7 126.489 14.456L123.357 15.896C122.745 16.364 122.457 16.76 122.457 17.156C122.457 17.48 122.673 17.66 123.105 17.696C123.357 17.696 123.717 17.624 124.113 17.516L124.545 17.3C124.509 17.264 124.473 17.264 124.365 17.3C123.789 17.408 123.501 17.3 123.501 16.94C123.501 16.22 124.617 15.464 125.337 15.644L122.457 23.96C121.665 26.264 120.369 27.74 118.605 28.352C118.713 28.46 119.001 28.424 119.469 28.28C120.441 27.992 121.521 27.344 122.709 26.372C124.797 24.68 126.237 23.708 127.065 23.528C126.993 23.456 126.705 23.384 126.237 23.348C126.165 23.312 126.129 23.168 126.129 22.844C126.165 22.448 126.201 22.052 126.309 21.656L127.785 18.02C129.081 14.852 129.693 13.52 129.549 13.088ZM139.61 13.88C139.646 13.808 139.646 13.772 139.61 13.736C138.782 14.06 137.378 14.384 135.326 14.636C133.49 14.888 132.194 15.248 131.438 15.716C130.682 16.184 130.142 17.048 129.782 18.344C129.314 20.504 128.918 22.844 128.306 23.564C128.27 23.6 128.054 23.852 127.658 24.392C127.406 24.716 127.154 24.968 126.902 25.148C128.018 25.256 129.35 25.112 130.862 24.716C132.914 24.176 134.642 23.456 135.974 22.484C136.586 22.016 136.946 21.656 137.054 21.404C136.874 20.324 137.342 18.596 138.422 16.184L138.962 15.068L139.358 14.348C139.538 14.096 139.61 13.916 139.61 13.88ZM135.902 15.32C135.902 15.356 135.83 15.464 135.686 15.644L135.47 16.04C134.786 18.308 134.282 19.964 134.03 21.116C133.454 22.736 132.554 23.6 131.366 23.708L131.618 22.952L131.87 22.268L132.95 17.984C133.274 16.652 134.282 15.788 135.902 15.32ZM150.222 14.672C149.934 14.204 149.394 13.988 148.602 13.988C147.45 13.988 146.262 14.312 145.002 14.996C145.47 13.988 145.65 13.34 145.542 13.088C145.434 12.836 145.002 12.332 145.002 12.584C144.822 13.124 144.03 13.7 142.698 14.312L141.69 14.744L140.394 15.248C138.99 16.004 138.27 16.724 138.27 17.372C138.27 17.804 138.522 18.02 138.99 18.02C139.422 18.02 140.43 17.804 140.61 17.516C140.502 17.516 140.43 17.516 140.394 17.552C139.746 17.624 139.422 17.48 139.422 17.12C139.422 16.724 139.746 16.328 140.43 15.932L141.294 15.644C141.114 16.616 140.79 17.84 140.25 19.388C139.71 21.08 139.206 22.268 138.81 22.952C138.018 24.32 137.01 25.22 135.75 25.652C135.858 25.76 136.146 25.76 136.614 25.616C137.586 25.292 138.702 24.68 139.89 23.708C141.51 22.412 142.518 21.656 142.914 21.404L143.706 21.044C144.03 20.9 144.174 20.792 144.066 20.756C144.03 20.756 143.814 20.72 143.382 20.684C143.274 20.612 143.238 20.468 143.238 20.216C143.238 19.748 143.49 18.884 143.958 17.588L144.534 16.04C145.074 15.716 145.506 15.5 145.866 15.464C145.758 15.86 145.218 17.732 144.102 21.296C143.49 23.312 142.986 24.572 142.662 25.148C141.834 26.516 140.826 27.416 139.566 27.884C139.674 27.992 139.962 27.956 140.466 27.812C141.294 27.56 142.086 27.128 142.806 26.552L145.146 24.716C146.082 23.96 146.946 23.456 147.738 23.168C147.846 23.132 147.882 23.06 147.918 23.024C147.918 22.988 147.918 22.988 147.882 22.952H146.73C146.766 22.772 146.838 22.376 147.018 21.692C147.486 19.784 148.062 18.056 148.674 16.472C148.89 15.86 149.07 15.5 149.214 15.32C149.502 14.924 149.826 14.708 150.222 14.672Z" fill="white"/>
<path d="M56.8 45.3C56.836 45.012 56.656 44.508 56.332 43.824C55.936 43.284 55.54 42.708 55.144 42.024C54.892 41.628 54.784 41.34 54.784 41.16C54.82 41.052 54.856 40.872 54.964 40.62C55.072 40.476 55.108 40.368 55.072 40.332C55.036 40.296 55 40.296 54.892 40.332C54.64 40.368 54.208 40.584 53.632 41.016C52.372 41.916 50.464 43.14 47.872 44.832C45.28 46.524 43.696 47.604 43.012 48.216C41.968 49.152 41.5 50.052 41.644 50.916C41.752 51.456 42.076 51.744 42.544 51.744C43.372 51.744 44.02 51.384 44.524 50.628L44.74 50.268C44.74 50.232 44.74 50.232 44.704 50.232C44.452 50.412 44.236 50.484 43.984 50.484C43.444 50.484 43.228 50.232 43.3 49.764C43.444 48.972 43.948 48.216 44.776 47.46L47.116 45.84L47.368 45.696C47.44 45.696 47.116 46.704 46.396 48.756L43.66 56.496L40.996 63.876C40.672 64.74 39.664 65.46 38.764 65.46C38.008 65.46 37.252 64.92 37.216 64.2C37.18 63.516 37.504 62.94 38.152 62.472C38.8 62.076 39.448 61.86 40.096 61.896C40.384 61.932 40.528 61.932 40.636 61.932C40.744 61.68 40.276 61.572 39.232 61.536C37.828 61.5 36.712 61.824 35.92 62.58C35.452 62.976 35.236 63.516 35.236 64.236C35.236 65.064 35.632 65.676 36.388 66.072C37.036 66.396 37.792 66.504 38.656 66.396C39.664 66.252 40.744 65.892 41.86 65.28L44.704 64.092C44.956 64.02 45.028 63.912 44.956 63.804C44.776 63.48 44.74 63.084 44.848 62.652C45.676 60.204 46.288 58.404 46.828 57.144C47.404 55.524 47.944 54.084 48.484 52.752L48.736 52.068C48.736 52.032 48.772 52.032 48.808 52.032C49.024 52.032 49.564 52.356 50.392 53.04C51.076 53.58 51.4 54.156 51.4 54.804C51.4 55.2 51.076 56.136 50.392 57.576L48.916 60.816L48.412 61.896C48.376 62.004 48.052 62.364 47.476 62.976L47.548 63.048C49.312 62.508 50.716 62.256 51.832 62.148C52.12 62.112 52.372 62.112 52.552 62.112C52.372 61.68 52.264 61.464 52.264 61.5C52.228 60.96 52.516 60.06 53.128 58.8L54.316 56.316C54.856 55.2 55.144 54.408 55.18 53.868C55.252 52.968 54.64 52.032 53.344 51.024L52.3 50.196C52.156 50.124 52.192 50.016 52.408 49.836C53.056 49.332 53.488 48.972 53.74 48.72L54.856 47.568C55.828 46.488 56.224 46.164 56.8 45.3ZM53.38 46.128C53.38 46.668 53.2 47.244 52.84 47.892C52.444 48.648 51.904 49.224 51.22 49.692C50.32 50.304 49.636 50.736 49.168 51.024C49.132 51.06 49.096 51.096 49.096 51.06L49.924 48.54C50.248 47.424 50.86 45.948 51.76 44.04C52.84 44.292 53.38 45.012 53.38 46.128ZM64.621 51.636C64.621 51.348 63.793 50.448 63.793 50.088C63.757 50.016 63.145 50.16 61.957 50.556L55.873 52.536C55.693 52.572 55.693 52.608 55.909 52.608H56.593C56.701 52.716 56.773 52.896 56.737 53.22C56.665 53.904 56.485 54.66 56.161 55.452C55.405 57.36 54.865 58.476 54.613 58.728C54.505 58.8 54.433 58.872 54.433 58.908L54.685 59.16C55.009 59.52 55.441 60.168 55.909 61.14C56.305 61.932 56.449 62.436 56.341 62.688C56.377 62.796 56.341 62.976 56.269 63.156C56.881 62.58 57.493 61.896 58.357 61.644L60.949 61.14C61.885 60.96 62.713 60.528 63.397 59.844C63.865 59.376 64.117 58.908 64.117 58.44C64.153 57.756 63.721 57.36 62.893 57.252C62.497 57.252 61.453 57.504 61.129 57.828C61.633 57.792 61.957 57.972 62.137 58.368C62.173 58.62 62.173 58.836 62.137 59.088C62.029 59.736 61.489 60.204 60.481 60.492C60.301 60.528 59.869 60.636 59.185 60.744L58.933 60.384C58.753 59.916 58.609 59.628 58.573 59.484C58.321 58.908 58.213 58.548 58.105 58.296C58.105 58.116 58.285 57.936 58.681 57.756C60.229 57.072 61.345 56.64 61.957 56.388C63.253 55.848 63.937 55.524 63.973 55.416C63.757 55.308 63.649 55.092 63.649 54.696C63.649 54.3 63.793 53.76 64.117 53.112C64.441 52.428 64.585 51.96 64.621 51.636ZM61.597 51.636C61.525 52.248 61.345 52.968 61.021 53.796L60.157 55.884C60.121 56.064 60.121 56.28 59.257 56.856C58.825 57.108 58.537 57.252 58.357 57.288L60.157 52.32C60.265 52.068 60.085 51.888 59.581 51.852C60.013 51.672 60.589 51.528 61.345 51.276C61.525 51.312 61.597 51.42 61.597 51.636ZM75.8696 49.836C75.6176 49.332 75.4376 49.152 75.2936 49.296C75.2216 49.584 75.0056 49.872 74.6096 50.196L73.7816 50.304C70.8656 50.7 68.9936 51.168 68.1656 51.672C67.4096 52.14 66.9416 52.716 66.6896 53.4C65.7176 55.992 65.1056 57.756 64.7816 58.8C64.6736 59.124 64.4216 59.556 64.0616 60.024C63.4496 60.852 62.9816 61.356 62.6576 61.608L62.5136 61.752C62.5136 61.788 62.5496 61.788 62.5856 61.788H62.6936C62.8376 61.824 62.9456 61.824 62.9816 61.788C64.7096 61.86 66.7256 61.428 69.0296 60.456C68.7056 61.572 68.4536 62.256 68.3456 62.58C67.8776 64.128 67.5176 65.1 67.3376 65.496C66.8696 66.504 66.2936 67.368 65.6096 68.052C64.4216 68.88 63.1616 69.456 61.8296 69.852C61.0736 70.104 60.4616 70.212 60.0656 70.248C58.8776 70.356 58.0136 70.212 57.4376 69.744C57.2576 69.636 57.1856 69.456 57.1856 69.132C57.1856 68.52 57.5096 67.98 58.1216 67.476C59.8136 66.144 61.6136 65.46 63.5216 65.46C64.2056 65.46 64.6736 65.496 64.8536 65.568H64.9976C65.0336 65.532 65.0336 65.532 64.9976 65.496L64.8536 65.424C64.2416 65.244 63.8096 65.1 63.5576 65.064C62.8016 64.956 61.9736 64.956 61.1096 65.064C58.4816 65.424 56.7536 66.252 55.8536 67.548C55.5296 68.016 55.3856 68.448 55.3856 68.916C55.3856 70.248 56.4656 70.932 58.5896 70.932C60.5696 70.932 62.8016 70.248 65.2856 68.88C66.2576 68.34 67.0496 67.872 67.6976 67.44L67.6616 67.404C69.7136 65.784 70.8296 64.956 70.9376 64.92C71.5136 64.56 71.9456 64.38 72.2696 64.344C71.8736 64.2 71.5856 64.128 71.4416 64.164C71.4056 64.128 71.3696 64.02 71.3696 63.912C71.3696 63.156 72.1976 60.492 73.8536 55.884C74.5376 53.976 74.9336 52.716 75.1856 52.032C75.6536 50.664 75.9056 49.944 75.8696 49.836ZM72.9176 51.168C72.9176 51.204 72.9176 51.24 72.8816 51.276L71.7656 52.032L70.7216 55.452C70.1816 57.216 69.8576 58.188 69.7136 58.44C69.4976 58.8 69.1016 59.232 68.5616 59.7C68.2016 60.024 67.6976 60.204 67.0496 60.24C67.4456 59.484 67.6616 58.944 67.7696 58.692L69.4256 54.12C69.8576 52.932 70.4696 52.176 71.2976 51.78C71.9816 51.456 72.4856 51.276 72.9176 51.168ZM81.3976 47.892C81.4336 47.64 81.2176 47.424 80.7496 47.244C80.3896 47.1 80.0656 47.028 79.7776 47.028C79.6696 47.388 79.4536 47.748 79.1296 48.108C78.4456 48.864 77.4016 49.8 75.9976 50.988L78.6256 49.872C80.4616 49.08 81.3616 48.432 81.3976 47.892ZM81.6856 50.088C81.6136 49.98 81.4696 49.836 81.2896 49.656C81.1816 49.548 81.1456 49.548 81.1456 49.584C80.9656 50.088 80.1376 50.7 78.6256 51.456L75.4936 52.896C74.8816 53.364 74.5936 53.76 74.5936 54.156C74.5936 54.48 74.8096 54.66 75.2416 54.696C75.4936 54.696 75.8536 54.624 76.2496 54.516L76.6816 54.3C76.6456 54.264 76.6096 54.264 76.5016 54.3C75.9256 54.408 75.6376 54.3 75.6376 53.94C75.6376 53.22 76.7536 52.464 77.4736 52.644L74.5936 60.96C73.8016 63.264 72.5056 64.74 70.7416 65.352C70.8496 65.46 71.1376 65.424 71.6056 65.28C72.5776 64.992 73.6576 64.344 74.8456 63.372C76.9336 61.68 78.3736 60.708 79.2016 60.528C79.1296 60.456 78.8416 60.384 78.3736 60.348C78.3016 60.312 78.2656 60.168 78.2656 59.844C78.3016 59.448 78.3376 59.052 78.4456 58.656L79.9216 55.02C81.2176 51.852 81.8296 50.52 81.6856 50.088ZM91.8907 50.484C91.9267 50.448 91.8907 50.376 91.8547 50.34C90.9547 50.736 90.0187 50.952 89.1187 51.06C85.7707 51.456 83.6467 52.284 82.7467 53.616C82.5307 53.94 82.3147 54.516 82.0987 55.344C81.9907 55.74 81.8827 56.316 81.7027 57.144L83.1427 58.008C83.3227 58.044 83.5027 58.008 83.7187 57.936C84.4027 57.504 84.9067 57.108 85.3027 56.784C85.8427 56.46 86.6347 56.028 87.7507 55.56C87.4267 55.884 87.1027 56.136 86.7787 56.388C86.3107 58.332 85.7707 59.592 85.0867 60.204C84.7627 60.528 84.2587 60.672 83.6107 60.708C84.0427 59.592 84.3307 58.692 84.4747 58.08L81.1267 59.484C80.6947 60.744 80.0467 61.608 79.1827 62.148C79.4707 62.184 79.7227 62.184 79.9027 62.148C80.9467 62.148 82.0267 62.004 83.1427 61.716C85.1947 61.176 86.9227 60.42 88.2547 59.484C88.8667 59.052 89.2267 58.692 89.3347 58.404C89.2267 57.756 89.4427 56.64 89.9467 55.092L88.9027 54.552C88.5067 54.516 88.0027 54.66 87.3907 54.984C86.3827 55.452 85.5187 55.92 84.8347 56.388L85.2307 54.984C85.4827 54.084 85.9867 53.292 86.8147 52.68C87.4987 52.356 87.9667 52.176 88.2547 52.068C88.1107 52.356 87.9667 52.644 87.7867 52.932C87.6067 53.328 87.4627 53.76 87.3547 54.156L90.8467 52.824C91.0267 52.356 91.1347 51.96 91.2427 51.672L91.6027 50.952L91.8907 50.484ZM109.383 40.98C109.203 39.576 108.339 38.856 106.863 38.856C105.423 38.856 103.911 39.648 102.363 41.196C101.499 42.06 100.887 42.996 100.562 44.004C100.455 44.292 100.419 44.472 100.419 44.58L100.779 44.112C101.463 43.212 102.111 42.492 102.723 42.024C103.731 41.304 104.883 40.872 106.215 40.764C107.151 40.764 108.267 41.304 108.159 42.24C107.907 44.22 106.503 45.696 103.947 46.668C102.111 47.352 99.9865 47.712 97.5025 47.748L98.6905 44.724C99.0145 43.968 99.1225 43.5 99.0505 43.32C99.0145 43.14 98.5825 42.672 98.4745 42.78C98.3305 43.32 97.6105 43.932 96.2785 44.616L95.3425 45.012C95.1265 45.084 94.9105 45.48 94.6585 46.236L94.2265 47.712C93.9025 47.712 93.3985 47.748 92.6785 47.784C91.2745 47.892 90.4105 47.964 90.1585 48.072C89.3305 48.396 88.8625 49.044 88.7905 49.944V50.124C88.9345 49.944 89.2585 49.692 89.7985 49.368C90.4105 49.008 91.7425 48.792 93.8665 48.756C92.8225 51.672 91.8145 54.66 90.7705 57.828C90.0865 59.88 89.6185 61.14 89.2945 61.68C88.4665 63.012 87.4585 63.948 86.2345 64.416C86.3425 64.524 86.6305 64.488 87.0985 64.344C87.9625 64.092 88.7545 63.696 89.4385 63.156C90.5905 62.256 91.3825 61.644 91.8145 61.248C92.7865 60.492 93.5785 59.988 94.4065 59.664C94.5145 59.628 94.6225 59.592 94.6585 59.556C94.3705 59.448 94.1185 59.412 93.8665 59.412C93.8305 59.376 93.7945 59.268 93.7945 59.16C93.7945 58.584 94.3705 56.604 95.5225 53.256L97.1425 48.72C102.867 48.54 106.719 46.812 108.771 43.5C109.311 42.672 109.491 41.808 109.383 40.98ZM105.402 51.636C105.402 51.348 104.574 50.448 104.574 50.088C104.538 50.016 103.926 50.16 102.738 50.556L96.6542 52.536C96.4742 52.572 96.4742 52.608 96.6902 52.608H97.3743C97.4823 52.716 97.5543 52.896 97.5183 53.22C97.4463 53.904 97.2663 54.66 96.9423 55.452C96.1862 57.36 95.6462 58.476 95.3942 58.728C95.2862 58.8 95.2142 58.872 95.2142 58.908L95.4662 59.16C95.7902 59.52 96.2222 60.168 96.6902 61.14C97.0863 61.932 97.2303 62.436 97.1223 62.688C97.1583 62.796 97.1223 62.976 97.0503 63.156C97.6623 62.58 98.2743 61.896 99.1383 61.644L101.73 61.14C102.666 60.96 103.494 60.528 104.178 59.844C104.646 59.376 104.898 58.908 104.898 58.44C104.934 57.756 104.502 57.36 103.674 57.252C103.278 57.252 102.234 57.504 101.91 57.828C102.414 57.792 102.738 57.972 102.918 58.368C102.954 58.62 102.954 58.836 102.918 59.088C102.81 59.736 102.27 60.204 101.262 60.492C101.082 60.528 100.65 60.636 99.9663 60.744L99.7143 60.384C99.5343 59.916 99.3903 59.628 99.3543 59.484C99.1023 58.908 98.9943 58.548 98.8863 58.296C98.8863 58.116 99.0663 57.936 99.4623 57.756C101.01 57.072 102.126 56.64 102.738 56.388C104.034 55.848 104.718 55.524 104.754 55.416C104.538 55.308 104.43 55.092 104.43 54.696C104.43 54.3 104.574 53.76 104.898 53.112C105.222 52.428 105.366 51.96 105.402 51.636ZM102.378 51.636C102.306 52.248 102.126 52.968 101.802 53.796L100.938 55.884C100.902 56.064 100.902 56.28 100.038 56.856C99.6063 57.108 99.3183 57.252 99.1383 57.288L100.938 52.32C101.046 52.068 100.866 51.888 100.362 51.852C100.794 51.672 101.37 51.528 102.126 51.276C102.306 51.312 102.378 51.42 102.378 51.636ZM115.211 51.96C115.031 51.636 114.923 51.384 114.923 51.204C114.887 51.096 114.239 51.276 113.015 51.672L111.539 52.14L111.827 51.528C112.151 50.844 112.259 50.376 112.151 50.088C112.043 49.836 111.611 49.332 111.611 49.584C111.431 50.052 110.603 50.664 109.127 51.42C108.083 51.96 107.039 52.428 105.995 52.896C105.383 53.364 105.059 53.796 105.059 54.156C105.059 54.48 105.275 54.66 105.743 54.696C105.995 54.696 106.319 54.624 106.715 54.516L107.147 54.3C107.147 54.264 107.075 54.264 106.967 54.3C106.391 54.408 106.103 54.3 106.103 53.94C106.103 53.22 107.219 52.464 107.939 52.644L106.643 56.28L105.815 58.764L105.347 60.132C105.095 60.816 104.771 61.536 104.303 62.256C103.835 62.94 103.547 63.372 103.367 63.552C103.943 63.372 104.771 63.012 105.815 62.4C107.867 61.212 108.911 60.528 108.911 60.384L108.875 60.348C108.803 60.312 108.767 60.168 108.767 59.844C108.803 59.376 108.803 58.98 108.911 58.656L110.387 55.02L111.143 53.112C111.143 53.148 111.143 53.148 111.179 53.184C111.179 53.148 111.179 53.112 111.143 53.076L111.323 52.716C111.611 52.608 111.971 52.5 112.403 52.392C112.583 52.428 112.619 52.536 112.583 52.716C112.439 53.148 112.151 54.012 112.115 54.264C111.791 54.984 111.647 55.524 111.647 55.884C112.763 55.488 113.951 55.056 115.139 54.588C114.995 54.48 114.959 54.3 115.067 54.084C115.391 53.4 115.535 52.932 115.643 52.752L115.211 51.96Z" fill="white"/>
</svg>
