<svg width="15" height="15" viewBox="0 0 15 15" fill="none" xmlns="http://www.w3.org/2000/svg">
<path d="M13.9012 1.43874L11.167 12.9544L7.88231 11.0551C7.88231 11.0551 7.46627 11.0551 7.36271 11.4097C7.25734 11.7643 7.50987 12.0125 7.50987 12.0125L10.8436 13.9406C11.3251 14.2199 11.8356 13.9362 11.9827 13.3134L14.9604 0.773867C15.1094 0.148883 14.8241 -0.15696 14.3373 0.0801792L0.375459 6.93284C-0.116883 7.17441 -0.127783 7.5955 0.359108 7.87696L4.13978 10.0622C4.13978 10.0622 4.51222 10.173 4.65393 9.77629C4.79745 9.37958 4.5104 9.10477 4.5104 9.10477L1.64719 7.44922L13.9012 1.43874ZM6.071 14.5989L6.19091 11.7488C6.21816 11.2346 6.51429 10.4744 6.82495 10.1176L13.6923 2.28314L13.8849 1.44982L12.6022 2.07702L6.23087 9.34412C5.76033 9.88267 5.36791 10.8955 5.32613 11.6778L5.19532 14.5966C5.19532 14.5966 5.32068 15 5.62953 15C5.93838 15 6.071 14.5989 6.071 14.5989Z" fill="#3B7073"/>
</svg>
