<svg width="80" height="80" viewBox="0 0 80 80" fill="none" xmlns="http://www.w3.org/2000/svg">
<path d="M0 40C0 17.9086 17.9086 0 40 0C62.0914 0 80 17.9086 80 40C80 62.0914 62.0914 80 40 80C17.9086 80 0 62.0914 0 40Z" fill="#222121"/>
<circle cx="50.5" cy="40.5" r="7.5" fill="white"/>
<path d="M38 42C38 44.5333 38.409 47.1884 38.8739 49.7217C38.9999 50.4086 39.1297 51.0848 39.2568 51.7475C39.6021 53.5468 39.9281 55.246 40.1083 56.786C40.3566 58.9078 40.3073 60.5935 39.7344 61.7364C39.4564 62.2908 39.0531 62.7209 38.4793 63.0186C37.8977 63.3203 37.1132 63.5 36.0583 63.5C31.8597 63.5 27.9776 60.6379 25.1163 56.446C22.2625 52.265 20.5 46.8621 20.5 42C20.5 37.1696 22.8505 31.3982 26.3225 26.8244C29.8075 22.2333 34.3031 19 38.5 19C39.5499 19 40.2766 19.2013 40.7757 19.5225C41.2644 19.837 41.5815 20.2963 41.7615 20.9138C42.1357 22.1979 41.8957 24.0818 41.3395 26.4057C41.031 27.695 40.6441 29.0531 40.2402 30.4709C39.9149 31.6131 39.5785 32.7939 39.2632 34.0086C38.5679 36.6872 38 39.4489 38 42Z" stroke="white"/>
</svg>
