<svg width="74" height="75" viewBox="0 0 74 75" fill="none" xmlns="http://www.w3.org/2000/svg">
<path d="M0 20.5464C0 9.50069 8.9543 0.546387 20 0.546387H54C65.0457 0.546387 74 9.50069 74 20.5464V54.5464C74 65.5921 65.0457 74.5464 54 74.5464H20C8.95431 74.5464 0 65.5921 0 54.5464V20.5464Z" fill="#312F2F"/>
<path d="M17.2419 37.1763H47.8039C53.2396 37.1763 57.6459 41.5827 57.6459 47.0183C57.6459 52.4539 53.2396 56.8603 47.8039 56.8603H17.2419C22.2484 56.8603 26.3069 52.8018 26.3069 47.7953V46.2413C26.3069 41.2348 22.2484 37.1763 17.2419 37.1763Z" fill="#968B6D"/>
<path d="M45.5789 39.1408L46.0884 30.1151H38.2562C38.2687 44.0017 38.2873 51.2558 38.3122 51.8774C38.3495 52.8098 38.3681 53.3381 38.3681 53.4625C38.3681 53.9597 38.0076 54.37 37.2865 54.6932C36.5655 55.0165 36.0993 55.178 35.8879 55.178C35.6766 55.178 35.5336 55.0848 35.459 54.8983C35.3845 54.7118 35.372 54.3824 35.4217 53.91C35.5543 52.617 35.6538 44.6855 35.7201 30.1151H28.3728C27.3285 30.1151 26.4832 30.2519 25.8367 30.5254L24.494 28.8844C25.414 29.0087 26.4458 29.0708 27.5896 29.0708H35.7201V26.3855C35.7201 24.1975 35.6704 22.0965 35.5709 20.0825L39.4124 21.6862C39.7108 21.7857 39.8599 21.9038 39.8599 22.0406C39.8599 22.1773 39.7108 22.3327 39.4124 22.5068L38.2562 23.2527V29.0708H45.7154L47.1327 27.3179L49.7807 29.3692C50.0045 29.5184 50.1163 29.6552 50.1163 29.7794C50.1163 29.9038 49.9672 30.053 49.6688 30.227L48.55 30.8238L48.0278 38.0965L45.5789 39.1408H45.5789ZM47.8993 22.9916C51.0322 23.8121 53.1332 24.5581 54.2023 25.2294C55.2715 25.9007 55.8061 26.7709 55.8061 27.8401C55.8061 28.2877 55.688 28.6854 55.4517 29.0336C55.2155 29.3817 54.8799 29.5557 54.4448 29.5557C54.0096 29.5557 53.5434 29.1952 53.0462 28.4741C52.1511 27.0817 50.3236 25.4034 47.5637 23.4392L47.8993 22.9916Z" fill="#FFFDFD"/>
<ellipse cx="19.7671" cy="47.6832" rx="3.54795" ry="3.54795" fill="#FFECEC"/>
</svg>
