<svg width="35" height="35" viewBox="0 0 35 35" fill="none" xmlns="http://www.w3.org/2000/svg">
<g clip-path="url(#clip0)">
<path d="M17.5 17.5C17.5 14.2734 20.125 11.6484 23.3516 11.6484C26.5781 11.6484 29.2031 14.2734 29.2031 17.5C29.2031 20.7266 26.5781 23.3516 23.3516 23.3516C20.125 23.3516 17.5 20.7266 17.5 17.5Z" fill="#1ABCFE"/>
<path d="M5.85156 29.2578C5.85156 26.0313 8.47656 23.4062 11.7031 23.4062H17.5V29.2578C17.5 32.4844 14.875 35.1094 11.6484 35.1094C8.42187 35.1094 5.85156 32.4844 5.85156 29.2578Z" fill="#0ACF83"/>
<path d="M17.5 0V11.6484H23.3516C26.5781 11.6484 29.2031 9.02344 29.2031 5.79688C29.2031 2.57031 26.5781 0 23.3516 0H17.5Z" fill="#FF7262"/>
<path d="M5.85156 5.85156C5.85156 9.07812 8.47656 11.7031 11.7031 11.7031H17.5V0H11.6484C8.42187 0 5.85156 2.625 5.85156 5.85156Z" fill="#F24E1E"/>
<path d="M5.85156 17.5547C5.85156 20.7813 8.47656 23.4063 11.7031 23.4063H17.5V11.7031H11.6484C8.42187 11.7031 5.85156 14.3281 5.85156 17.5547Z" fill="#A259FF"/>
</g>
<defs>
<clipPath id="clip0">
<rect width="35" height="35" fill="white"/>
</clipPath>
</defs>
</svg>
