<svg width="35" height="35" viewBox="0 0 35 35" fill="none" xmlns="http://www.w3.org/2000/svg">
<path d="M17.5 35C27.165 35 35 27.165 35 17.5C35 7.83502 27.165 0 17.5 0C7.83502 0 0 7.83502 0 17.5C0 27.165 7.83502 35 17.5 35Z" fill="#C71D23"/>
<path fill-rule="evenodd" clip-rule="evenodd" d="M26.358 15.5559H16.4197C15.9426 15.5562 15.5557 15.9429 15.5553 16.4201L15.5548 18.5805C15.5544 19.0578 15.9412 19.4448 16.4185 19.4449C16.4186 19.4449 16.4186 19.4449 16.4187 19.4447L22.4691 19.4447C22.9464 19.4446 23.3333 19.8316 23.3333 20.3088C23.3333 20.3088 23.3333 20.3088 23.3333 20.3088V20.5249V20.7409C23.3333 22.1728 22.1726 23.3335 20.7407 23.3335H12.5302C12.053 23.3335 11.6662 22.9466 11.6661 22.4694L11.6659 14.2597C11.6658 12.8279 12.8265 11.6671 14.2583 11.6671C14.2584 11.6671 14.2584 11.6671 14.2584 11.6671H26.3556C26.8326 11.6666 27.2194 11.28 27.2203 10.803L27.2216 8.64256C27.2225 8.16528 26.8358 7.77813 26.3585 7.77783C26.3583 7.77783 26.3581 7.77783 26.358 7.77837H14.2592C10.6796 7.77837 7.77771 10.6802 7.77771 14.2598V26.3581C7.77771 26.8354 8.16462 27.2223 8.6419 27.2223H21.389C24.6106 27.2223 27.2222 24.6107 27.2222 21.3891V16.4201C27.2222 15.9428 26.8352 15.5559 26.358 15.5559Z" fill="white"/>
</svg>
