<svg width="40" height="40" viewBox="0 0 40 40" fill="none" xmlns="http://www.w3.org/2000/svg">
<path d="M37.5 20C37.5 23.8188 36.3787 27.235 34.1537 30.2838C31.9287 33.3313 29.0562 35.4338 25.535 36.6063C25.1325 36.6775 24.8175 36.6238 24.6425 36.4488C24.5486 36.3622 24.4747 36.2562 24.4261 36.138C24.3775 36.0199 24.3554 35.8926 24.3612 35.765V30.965C24.3612 29.495 23.9588 28.4088 23.1713 27.7263C23.9564 27.6488 24.7348 27.5134 25.5 27.3213C26.249 27.1207 26.9679 26.821 27.6375 26.43C28.3738 26.0088 28.9863 25.5175 29.4775 24.9225C29.9675 24.3275 30.37 23.52 30.685 22.5225C31.0013 21.5238 31.1588 20.3863 31.1588 19.0888C31.1588 17.25 30.5637 15.6913 29.3538 14.395C29.915 13.01 29.8625 11.4688 29.1788 9.7525C28.7588 9.61125 28.1462 9.7 27.34 9.9975C26.5338 10.295 25.8337 10.6288 25.2375 10.9963L24.3787 11.5388C22.96 11.1363 21.5063 10.9438 20 10.9438C18.4937 10.9438 17.04 11.1363 15.6213 11.5388C15.3068 11.3241 14.9854 11.1198 14.6575 10.9263C14.2537 10.6813 13.6237 10.3838 12.7475 10.05C11.89 9.7 11.2238 9.61125 10.785 9.735C10.12 11.4513 10.0675 12.9938 10.6275 14.3775C9.43625 15.6913 8.82375 17.25 8.82375 19.0888C8.82375 20.3863 8.98125 21.5238 9.2975 22.505C9.61125 23.4863 10.015 24.2925 10.4887 24.905C10.9787 25.5175 11.5913 26.0263 12.3275 26.43C13.0638 26.8325 13.7812 27.13 14.465 27.3213C15.2306 27.5135 16.0094 27.6489 16.795 27.7263C16.1812 28.2675 15.8137 29.0563 15.6737 30.0725C15.3464 30.231 14.9984 30.343 14.64 30.405C14.2121 30.4804 13.7782 30.5155 13.3438 30.51C12.835 30.51 12.345 30.3525 11.8538 30.02C11.3637 29.6875 10.9438 29.2138 10.5938 28.6013C10.3158 28.1294 9.9393 27.7231 9.49 27.41C9.05125 27.095 8.66625 26.9188 8.36875 26.8663L7.91375 26.7963C7.5975 26.7963 7.37 26.8325 7.2475 26.9013C7.125 26.9713 7.09 27.0588 7.1425 27.1638C7.195 27.2688 7.265 27.375 7.3525 27.48C7.44 27.585 7.545 27.6725 7.65 27.76L7.8075 27.865C8.14125 28.0225 8.47375 28.3038 8.80625 28.7238C9.14 29.1438 9.3675 29.53 9.525 29.88L9.7525 30.405C9.945 30.9838 10.2775 31.4563 10.7512 31.8063C11.2238 32.1575 11.7312 32.385 12.275 32.49C12.8175 32.595 13.3438 32.6475 13.8513 32.6475C14.3588 32.6475 14.78 32.63 15.1125 32.56L15.6388 32.4725C15.6388 33.05 15.6388 33.7338 15.655 34.505C15.655 35.2763 15.6737 35.6963 15.6737 35.7313C15.6766 35.8599 15.6514 35.9876 15.5998 36.1055C15.5482 36.2234 15.4715 36.3286 15.375 36.4138C15.1825 36.5888 14.8675 36.6413 14.465 36.5713C10.9437 35.3975 8.07125 33.2963 5.84625 30.2475C3.60375 27.235 2.5 23.8013 2.5 20C2.5 16.83 3.28875 13.9038 4.8475 11.2238C6.40625 8.54375 8.52625 6.42375 11.2238 4.8475C13.9038 3.28875 16.8287 2.5 20 2.5C23.1712 2.5 26.0963 3.28875 28.7762 4.8475C31.4562 6.40625 33.5763 8.52625 35.1525 11.2238C36.7113 13.8863 37.5 16.83 37.5 20Z" fill="black"/>
</svg>
