<svg width="59" height="35" viewBox="0 0 59 35" fill="none" xmlns="http://www.w3.org/2000/svg">
<path d="M28.5931 35C28.3966 35 28.2066 34.9493 28.0363 34.8541L26.2675 33.8395C26.0055 33.6937 26.13 33.643 26.2217 33.6176C26.5754 33.4971 26.6475 33.4717 27.0209 33.2625C27.0602 33.2435 27.1126 33.2498 27.1519 33.2688L28.5145 34.0488C28.5604 34.0742 28.6324 34.0742 28.6783 34.0488L33.978 31.0874C34.0239 31.0621 34.0566 31.005 34.0566 30.9479V25.0251C34.0566 24.9681 34.0239 24.911 33.9715 24.8856L28.6717 21.9242C28.6259 21.8989 28.5604 21.8989 28.508 21.9242L23.2148 24.892C23.1624 24.9173 23.1296 24.9744 23.1296 25.0315V30.9543C23.1296 31.0113 23.1624 31.0621 23.2148 31.0938L24.6691 31.9054C25.4552 32.2859 25.94 31.8357 25.94 31.3855V25.5388C25.94 25.4563 26.0055 25.3929 26.0907 25.3929H26.7588C26.844 25.3929 26.9095 25.4563 26.9095 25.5388V31.3855C26.9095 32.4001 26.3396 32.9898 25.3373 32.9898C25.0294 32.9898 24.787 32.9898 24.1123 32.6664L22.7235 31.8928C22.3828 31.7025 22.1666 31.3411 22.1666 30.9543V25.0315C22.1666 24.6447 22.3763 24.2895 22.7235 24.0993L28.0297 21.1379C28.3638 20.954 28.8093 20.954 29.1434 21.1379L34.4431 24.0993C34.7838 24.2895 35 24.651 35 25.0315V30.9543C35 31.3411 34.7838 31.6962 34.4431 31.8864L29.1434 34.8478C28.9796 34.9493 28.7831 34.9937 28.5931 35Z" fill="#689F63"/>
<path d="M30.5076 30.3335C28.4336 30.3335 28 29.3273 28 28.4878C28 28.4076 28.0586 28.3458 28.1348 28.3458H28.7499C28.8203 28.3458 28.873 28.3952 28.8847 28.4693C28.9784 29.1236 29.2538 29.457 30.5076 29.457C31.5095 29.457 31.9314 29.2162 31.9314 28.6607C31.9314 28.3397 31.8083 28.0989 30.2557 27.9384C28.955 27.8026 28.1523 27.5002 28.1523 26.4076C28.1523 25.4014 28.9609 24.8026 30.3084 24.8026C31.8259 24.8026 32.5759 25.3582 32.6755 26.5495C32.6813 26.5928 32.6637 26.6298 32.6403 26.6607C32.6169 26.6915 32.5759 26.7039 32.5407 26.7039H31.9255C31.8611 26.7039 31.8083 26.6545 31.7907 26.5928C31.6443 25.9014 31.2869 25.6792 30.3084 25.6792C29.2187 25.6792 29.0898 26.0804 29.0898 26.3767C29.0898 26.7409 29.2421 26.8458 30.7127 27.0495C32.1716 27.2532 32.8629 27.5434 32.8629 28.6174C32.8629 29.7039 32.0017 30.3273 30.5018 30.3273L30.5076 30.3335ZM36.2729 24.2286H36.4311C36.5599 24.2286 36.5892 24.1298 36.5892 24.0742C36.5892 23.9261 36.4955 23.9261 36.4369 23.9261H36.2729V24.2286V24.2286ZM36.0795 23.7594H36.4311C36.5541 23.7594 36.7884 23.7594 36.7884 24.0434C36.7884 24.2409 36.6654 24.2841 36.5951 24.3088C36.7357 24.3212 36.7474 24.4137 36.765 24.5557C36.7767 24.6421 36.7884 24.7903 36.8177 24.8397H36.601C36.5951 24.7903 36.5599 24.5125 36.5599 24.5002C36.5482 24.4384 36.5248 24.4076 36.4545 24.4076H36.2729V24.8397H36.0795V23.7594ZM35.6577 24.2965C35.6577 24.7471 36.0033 25.1051 36.4193 25.1051C36.847 25.1051 37.1869 24.7347 37.1869 24.2965C37.1869 23.8458 36.8412 23.494 36.4193 23.494C36.0033 23.4878 35.6518 23.8397 35.6577 24.2965ZM37.3333 24.2965C37.3333 24.8273 36.9232 25.2594 36.4193 25.2594C35.9213 25.2594 35.5053 24.8335 35.5053 24.2965C35.5053 23.7533 35.933 23.3335 36.4193 23.3335C36.9115 23.3335 37.3333 23.7533 37.3333 24.2965Z" fill="#689F63"/>
<path d="M12.5195 11.774C12.5195 11.5364 12.3893 11.3181 12.181 11.1961L6.59505 8.02407C6.50391 7.96628 6.39323 7.94059 6.28906 7.93417H6.23047C6.1263 7.94059 6.01562 7.96628 5.92448 8.02407L0.338541 11.1961C0.130208 11.3181 0 11.5364 0 11.774L0.0130206 20.3142C0.0130206 20.4297 0.0781252 20.5453 0.182292 20.6031C0.286459 20.6673 0.416667 20.6673 0.514323 20.6031L3.83464 18.7281C4.04297 18.6061 4.17318 18.3878 4.17318 18.1502V14.1627C4.17318 13.9251 4.30339 13.7068 4.51172 13.5848L5.92448 12.7821C6.02865 12.7244 6.14583 12.6922 6.26302 12.6922C6.38021 12.6922 6.4974 12.7244 6.60156 12.7821L8.01432 13.5848C8.22266 13.7004 8.35286 13.9251 8.35286 14.1627V18.1502C8.35286 18.3878 8.48307 18.6061 8.69141 18.7281L12.0117 20.6031C12.1159 20.6673 12.2461 20.6673 12.3503 20.6031C12.4544 20.5453 12.5195 20.4362 12.5195 20.3142V11.774V11.774ZM38.8737 16.2175C38.8737 16.2753 38.8411 16.333 38.7891 16.3587L36.8685 17.4503C36.8164 17.4824 36.7513 17.4824 36.6992 17.4503L34.7786 16.3587C34.7266 16.3266 34.694 16.2753 34.694 16.2175V14.0343C34.694 13.9765 34.7266 13.9187 34.7786 13.893L36.6992 12.8014C36.7513 12.7693 36.8164 12.7693 36.8685 12.8014L38.7891 13.893C38.8411 13.9251 38.8737 13.9765 38.8737 14.0343V16.2175ZM39.3945 0.0425721C39.2904 -0.0152183 39.1602 -0.0152189 39.056 0.0489927C38.9518 0.106783 38.8867 0.215943 38.8867 0.337945V8.79461C38.8867 8.87808 38.8411 8.95514 38.7695 8.99366C38.6979 9.03219 38.6068 9.03219 38.5352 8.99366L37.1354 8.19744C36.9271 8.07544 36.6732 8.07544 36.4583 8.19744L30.8724 11.3759C30.6641 11.4915 30.5339 11.7162 30.5339 11.9538V18.3172C30.5339 18.5548 30.6641 18.7731 30.8724 18.8951L36.4583 22.08C36.6667 22.1956 36.9206 22.1956 37.1354 22.08L42.7214 18.8951C42.9297 18.7731 43.0599 18.5548 43.0599 18.3172V2.4505C43.0599 2.2065 42.9297 1.98818 42.7148 1.86618L39.3945 0.0425721ZM57.9948 13.9765C58.2031 13.8545 58.3333 13.6362 58.3333 13.3986V11.8575C58.3333 11.6199 58.2031 11.4016 57.9948 11.2796L52.4414 8.10112C52.3389 8.04122 52.222 8.00962 52.1029 8.00962C51.9837 8.00962 51.8668 8.04122 51.7643 8.10112L46.1784 11.2796C45.97 11.4016 45.8398 11.6199 45.8398 11.8575V18.2144C45.8398 18.452 45.97 18.6768 46.1784 18.7923L51.7318 21.913C51.9336 22.0286 52.1875 22.0286 52.3958 21.9195L55.7552 20.0766C55.8594 20.0188 55.931 19.9096 55.931 19.7876C55.931 19.6656 55.8659 19.5565 55.7617 19.4987L50.1432 16.3202C50.0391 16.2624 49.974 16.1533 49.974 16.0312V14.0343C49.974 13.9123 50.0391 13.8031 50.1432 13.7453L51.8945 12.75C51.9987 12.6923 52.1289 12.6923 52.2331 12.75L53.9844 13.7453C54.0885 13.8031 54.1536 13.9123 54.1536 14.0343V15.601C54.1536 15.7166 54.2187 15.8322 54.3229 15.89C54.4271 15.9478 54.5573 15.9478 54.6615 15.89L57.9948 13.9765V13.9765Z" fill="#231815"/>
<path d="M51.2523 13.7999C51.2907 13.7742 51.3419 13.7742 51.3803 13.7999L52.436 14.4109C52.4744 14.4366 52.5 14.4752 52.5 14.5202V15.7421C52.5 15.7871 52.4744 15.8321 52.436 15.8514L51.3803 16.4623C51.3419 16.488 51.2907 16.488 51.2523 16.4623L50.1966 15.8514C50.1582 15.8257 50.1326 15.7871 50.1326 15.7421V14.5202C50.1326 14.4752 50.1582 14.4302 50.1966 14.4109L51.2523 13.7999ZM27.2208 11.5427L27.208 11.5298C27.2016 11.5234 27.1952 11.517 27.1824 11.5106C27.1696 11.4977 27.1504 11.4848 27.1376 11.472C27.1312 11.4655 27.1312 11.4655 27.1248 11.4655L27.0672 11.427L23.4906 9.34978L22.9212 9.02181L21.6032 8.25654C21.5456 8.22438 21.488 8.20509 21.4304 8.1858C21.3793 8.17293 21.3281 8.1665 21.2769 8.1665H21.2129H21.2065C21.1937 8.1665 21.1809 8.17294 21.1681 8.17294C21.1553 8.17294 21.1425 8.17936 21.1361 8.17936C21.1233 8.1858 21.1041 8.1858 21.0913 8.19223C21.0849 8.19223 21.0721 8.19866 21.0657 8.19866C21.0465 8.20509 21.0337 8.21152 21.021 8.21795H21.0146C20.9954 8.22438 20.9762 8.23724 20.957 8.2501L16.747 10.6938L15.5121 11.4077L15.4993 11.4141C15.2946 11.5298 15.1666 11.7485 15.1666 11.9864V18.3273C15.1666 18.4752 15.2178 18.6167 15.301 18.7324C15.3138 18.7517 15.333 18.771 15.3522 18.7903L15.365 18.8032C15.3778 18.816 15.397 18.8289 15.4098 18.8482L15.4226 18.861C15.4417 18.8803 15.4673 18.8932 15.4929 18.9061L20.2532 21.6713L20.957 22.0765C21.0146 22.1086 21.0721 22.1344 21.1361 22.1472C21.1489 22.1472 21.1617 22.1536 21.1681 22.1536C21.1873 22.1536 21.2001 22.1601 21.2193 22.1601C21.2385 22.1601 21.2513 22.1601 21.2705 22.1665H21.2897C21.3153 22.1665 21.3345 22.1665 21.3601 22.1601H21.3856C21.4048 22.1601 21.424 22.1536 21.4432 22.1472C21.4496 22.1472 21.456 22.1472 21.4624 22.1408H21.4752L21.5328 22.1215C21.5392 22.1215 21.5392 22.1215 21.5456 22.1151L21.6224 22.0765L27.08 18.9061C27.2464 18.8096 27.3615 18.636 27.3999 18.4495C27.4063 18.4109 27.4127 18.3723 27.4127 18.3337V11.9929C27.3999 11.8192 27.3359 11.6585 27.2208 11.5427V11.5427Z" fill="#689F63"/>
</svg>
